<?xml version="1.0"?>
<svg xmlns="http://www.w3.org/2000/svg" height="512px" viewBox="0 0 448 448" width="512px" class=""><g><path d="m64 434.398438c7.585938-10.613282 20.800781-29.597657 33.167969-50.230469 19.878906-32.847657 30.832031-58.480469 30.832031-72.167969.019531-21.371094-10.660156-41.335938-28.449219-53.183594-19.628906-13.113281-44.886719-14.355468-65.707031-3.234375-20.824219 11.125-33.8320312 32.808594-33.84375 56.417969 0 27.503906 41.535156 91.121094 64 122.398438zm0-154.398438c17.671875 0 32 14.328125 32 32s-14.328125 32-32 32-32-14.328125-32-32 14.328125-32 32-32zm0 0" data-original="#000000" class="active-path" fill="#000000"/><path d="m448 24c0-13.253906-10.746094-24-24-24h-56v32h48v96h-48v320h56c13.253906 0 24-10.746094 24-24zm0 0" data-original="#000000" class="active-path" fill="#000000"/><path d="m160 48h160v64h-160zm0 0" data-original="#000000" class="active-path" fill="#000000"/><path d="m368 48h32v64h-32zm0 0" data-original="#000000" class="active-path" fill="#000000"/><path d="m336 0h16v448h-16zm0 0" data-original="#000000" class="active-path" fill="#000000"/><path d="m320 128h-176v-96h176v-32h-208v248.214844c20.125 15.027344 31.984375 38.667968 32 63.785156 0 16.726562-10.808594 43.199219-32 78.496094v57.503906h208zm0 0" data-original="#000000" class="active-path" fill="#000000"/></g> </svg>
