<?xml version="1.0"?>
<svg xmlns="http://www.w3.org/2000/svg" xmlns:xlink="http://www.w3.org/1999/xlink" version="1.1" id="Layer_1" x="0px" y="0px" viewBox="0 0 512 512" style="enable-background:new 0 0 512 512;" xml:space="preserve" width="512px" height="512px" class=""><g><path style="fill:#1F84CE;" d="M459.932,190.249h-56.694V321.75h56.694c17.236,0,31.209-13.973,31.209-31.21v-69.084  C491.14,204.222,477.168,190.249,459.932,190.249z" data-original="#1F84CE" class=""/><path style="fill:#F9C526;" d="M459.932,58.747h-56.694v131.502h56.694c17.236,0,31.209-13.973,31.209-31.21V89.955  C491.14,72.72,477.168,58.747,459.932,58.747z" data-original="#F9C526"/><path style="fill:#FB7686;" d="M459.932,321.751h-56.694v131.502h56.694c17.236,0,31.209-13.972,31.209-31.209V352.96  C491.14,335.724,477.168,321.751,459.932,321.751z" data-original="#FB7686"/><g>
	<rect x="403.236" y="58.747" style="opacity:0.15;fill:#145587;enable-background:new    ;" width="43.594" height="131.146"/>
	<rect x="403.236" y="190.244" style="opacity:0.2;fill:#145587;enable-background:new    ;" width="43.594" height="131.146"/>
	<rect x="403.236" y="321.755" style="opacity:0.3;fill:#145587;enable-background:new    ;" width="43.594" height="131.146"/>
</g><path style="fill:#89BBE4;" d="M393.871,8.04H33.389c-6.92,0-12.529,5.61-12.529,12.529v470.862c0,6.92,5.61,12.529,12.529,12.529  H393.87c13.463,0,24.375-10.914,24.375-24.376V32.416C418.246,18.954,407.333,8.04,393.871,8.04z" data-original="#89BBE4" class=""/><path style="fill:#FFFFFF;" d="M347.315,114.498H139.711c-10.889,0-19.719,8.829-19.719,19.719v120.825  c0,10.89,8.829,19.718,19.719,19.718h207.604c10.89,0,19.719-8.829,19.719-19.718V134.217  C367.033,123.327,358.205,114.498,347.315,114.498z" data-original="#FFFFFF"/><g>
	<path style="fill:#1F84CE;" d="M306.974,224.376H180.053c-4.441,0-8.04-3.6-8.04-8.04s3.599-8.04,8.04-8.04h126.921   c4.441,0,8.04,3.6,8.04,8.04S311.415,224.376,306.974,224.376z" data-original="#1F84CE" class=""/>
	<path style="fill:#1F84CE;" d="M286.597,181.497h-86.168c-4.441,0-8.04-3.6-8.04-8.04c0-4.44,3.599-8.04,8.04-8.04h86.168   c4.44,0,8.04,3.6,8.04,8.04C294.637,177.897,291.038,181.497,286.597,181.497z" data-original="#1F84CE" class=""/>
</g><path style="fill:#ACDFEA;" d="M348.096,320.356H138.93c-10.459,0-18.938,8.478-18.938,18.938l0,0  c0,10.459,8.478,18.938,18.938,18.938h209.167c10.459,0,18.937-8.478,18.937-18.938l0,0  C367.033,328.834,358.556,320.356,348.096,320.356z" data-original="#ACDFEA" class=""/><path style="fill:#384148;" d="M33.389,8.04c-6.92,0-12.529,5.61-12.529,12.529v470.862c0,6.92,5.61,12.529,12.529,12.529H68.78  V8.04H33.389z" data-original="#384148"/><path d="M499.18,159.04V89.955c0-21.642-17.607-39.248-39.248-39.248h-33.646V32.416C426.286,14.541,411.744,0,393.871,0H33.389  C22.047,0,12.82,9.228,12.82,20.569v470.862c0,11.342,9.228,20.569,20.569,20.569H393.87c17.874,0,32.415-14.541,32.415-32.416  v-18.291h33.646c21.641,0,39.248-17.607,39.248-39.248V352.96c0-12.715-6.082-24.032-15.485-31.209  c9.402-7.177,15.485-18.494,15.485-31.21v-69.084c0-12.715-6.082-24.032-15.485-31.209  C493.098,183.072,499.18,171.755,499.18,159.04z M60.741,495.92H33.389c-2.476,0-4.489-2.014-4.489-4.489V20.569  c0-2.475,2.014-4.489,4.489-4.489h27.352V495.92z M410.206,479.583c0,9.008-7.328,16.336-16.335,16.336H76.82V16.08h317.051  c9.007,0,16.335,7.328,16.335,16.336L410.206,479.583L410.206,479.583z M483.1,422.044c0,12.776-10.393,23.169-23.169,23.169  h-33.646V329.791h33.646c12.776,0,23.169,10.394,23.169,23.169V422.044z M483.1,290.542c0,12.776-10.393,23.17-23.169,23.17h-33.646  V198.288h33.652c12.774,0.002,23.163,10.395,23.163,23.169V290.542z M483.1,159.04c0,12.775-10.39,23.167-23.163,23.17  c-0.002,0-0.003,0-0.005,0h-33.646V66.786h33.646c12.776,0,23.169,10.394,23.169,23.169V159.04z" data-original="#000000" class=""/></g> </svg>
