<?xml version="1.0"?>
<svg xmlns="http://www.w3.org/2000/svg" xmlns:xlink="http://www.w3.org/1999/xlink" version="1.1" id="Layer_1" x="0px" y="0px" viewBox="0 0 512 512" style="enable-background:new 0 0 512 512;" xml:space="preserve" width="512px" height="512px" class=""><g><link xmlns="" type="text/css" id="dark-mode" rel="stylesheet"/><style xmlns="" type="text/css" id="dark-mode-custom-style"/><path style="fill:#F07B52;" d="M474.131,146.544L260.798,1.478c-2.896-1.97-6.7-1.97-9.596,0L37.869,146.544  c-2.336,1.588-3.735,4.23-3.735,7.056v332.8c0,4.713,3.821,8.533,8.533,8.533h426.667c4.713,0,8.533-3.821,8.533-8.533V153.6  C477.867,150.775,476.468,148.133,474.131,146.544z" data-original="#F07B52"/><path style="fill:#E5563C;" d="M59.733,486.4V153.6c0-2.826,1.399-5.468,3.735-7.056L268.8,6.919l-8.002-5.441  c-2.896-1.97-6.7-1.97-9.596,0L37.869,146.544c-2.336,1.588-3.735,4.23-3.735,7.056v332.8c0,4.713,3.821,8.533,8.533,8.533h25.6  C63.554,494.934,59.733,491.114,59.733,486.4z" data-original="#E5563C"/><path style="fill:#CF442B;" d="M332.8,179.2H179.2c-4.713,0-8.533,3.821-8.533,8.533v290.133h170.667V187.734  C341.333,183.021,337.513,179.2,332.8,179.2z" data-original="#CF442B"/><rect x="179.2" y="187.734" style="fill:#74757B;" width="153.6" height="290.133" data-original="#74757B"/><path style="fill:#4C4E55;" d="M110.933,486.4c-4.713,0-8.533-3.821-8.533-8.533v-51.2c0-4.713,3.821-8.533,8.533-8.533  c4.713,0,8.533,3.821,8.533,8.533v51.2C119.467,482.581,115.646,486.4,110.933,486.4z" data-original="#4C4E55"/><circle style="fill:#6AC8B7;" cx="110.933" cy="401.067" r="42.667" data-original="#6AC8B7"/><path style="fill:#2DB59F;" d="M119.467,426.667C95.903,426.667,76.8,407.564,76.8,384c0-3.47,0.425-6.839,1.206-10.068  c-6.084,7.374-9.74,16.828-9.74,27.135c0,23.564,19.103,42.667,42.667,42.667c20.094,0,36.933-13.894,41.46-32.598  C144.569,420.621,132.723,426.667,119.467,426.667z" data-original="#2DB59F"/><path style="fill:#4C4E55;" d="M401.067,486.4c-4.713,0-8.533-3.821-8.533-8.533v-51.2c0-4.713,3.821-8.533,8.533-8.533  c4.713,0,8.533,3.821,8.533,8.533v51.2C409.6,482.581,405.779,486.4,401.067,486.4z" data-original="#4C4E55"/><circle style="fill:#6AC8B7;" cx="401.067" cy="401.067" r="42.667" data-original="#6AC8B7"/><path style="fill:#2DB59F;" d="M409.6,426.667c-23.564,0-42.667-19.103-42.667-42.667c0-3.47,0.425-6.839,1.206-10.068  c-6.084,7.374-9.74,16.828-9.74,27.135c0,23.564,19.103,42.667,42.667,42.667c20.094,0,36.933-13.894,41.46-32.598  C434.702,420.621,422.857,426.667,409.6,426.667z" data-original="#2DB59F"/><path style="fill:#D7D8D9;" d="M494.934,477.867H17.067c-4.713,0-8.533,3.821-8.533,8.533v17.067c0,4.713,3.821,8.533,8.533,8.533  h477.867c4.713,0,8.533-3.821,8.533-8.533V486.4C503.467,481.688,499.646,477.867,494.934,477.867z" data-original="#D7D8D9" class=""/><path style="fill:#C3C4C6;" d="M494.934,503.467H17.067c-4.713,0-8.533-3.821-8.533-8.533v8.533c0,4.713,3.821,8.533,8.533,8.533  h477.867c4.713,0,8.533-3.821,8.533-8.533v-8.533C503.467,499.647,499.646,503.467,494.934,503.467z" data-original="#C3C4C6"/><g>
	<path style="fill:#CF442B;" d="M290.133,162.134h-68.267c-4.713,0-8.533-3.821-8.533-8.533s3.821-8.533,8.533-8.533h68.267   c4.713,0,8.533,3.821,8.533,8.533S294.846,162.134,290.133,162.134z" data-original="#CF442B"/>
	<path style="fill:#CF442B;" d="M290.133,128h-68.267c-4.713,0-8.533-3.821-8.533-8.533c0-4.713,3.821-8.533,8.533-8.533h68.267   c4.713,0,8.533,3.821,8.533,8.533C298.667,124.179,294.846,128,290.133,128z" data-original="#CF442B"/>
	<path style="fill:#CF442B;" d="M290.133,93.867h-68.267c-4.713,0-8.533-3.821-8.533-8.533s3.821-8.533,8.533-8.533h68.267   c4.713,0,8.533,3.821,8.533,8.533S294.846,93.867,290.133,93.867z" data-original="#CF442B"/>
	<path style="fill:#CF442B;" d="M145.067,213.334H76.8c-4.713,0-8.533,3.821-8.533,8.533v76.8c0,4.713,3.821,8.533,8.533,8.533   h68.267c4.713,0,8.533-3.821,8.533-8.533v-76.8C153.6,217.154,149.779,213.334,145.067,213.334z" data-original="#CF442B"/>
</g><rect x="76.8" y="221.867" style="fill:#D7D8D9;" width="68.267" height="76.8" data-original="#D7D8D9" class=""/><g>
	<polygon style="fill:#9B9DA1;" points="133.333,298.667 145.067,298.667 145.067,286.934  " data-original="#9B9DA1"/>
	<polygon style="fill:#9B9DA1;" points="87.467,298.667 122.312,298.667 145.067,275.912 145.067,241.067  " data-original="#9B9DA1"/>
	<polygon style="fill:#9B9DA1;" points="76.8,221.867 76.8,273.778 128.712,221.867  " data-original="#9B9DA1"/>
</g><path style="fill:#CF442B;" d="M435.2,213.334h-68.267c-4.713,0-8.533,3.821-8.533,8.533v76.8c0,4.713,3.821,8.533,8.533,8.533  H435.2c4.713,0,8.533-3.821,8.533-8.533v-76.8C443.733,217.154,439.913,213.334,435.2,213.334z" data-original="#CF442B"/><rect x="366.934" y="221.867" style="fill:#D7D8D9;" width="68.267" height="76.8" data-original="#D7D8D9" class=""/><g>
	<polygon style="fill:#9B9DA1;" points="423.467,298.667 435.2,298.667 435.2,286.934  " data-original="#9B9DA1"/>
	<polygon style="fill:#9B9DA1;" points="377.6,298.667 412.445,298.667 435.2,275.912 435.2,241.067  " data-original="#9B9DA1"/>
	<polygon style="fill:#9B9DA1;" points="366.934,221.867 366.934,273.778 418.845,221.867  " data-original="#9B9DA1"/>
</g><path style="fill:#F2C127;" d="M290.133,290.134h-68.267c-4.713,0-8.533,3.821-8.533,8.533v51.2c0,4.713,3.821,8.533,8.533,8.533  h68.267c4.713,0,8.533-3.821,8.533-8.533v-51.2C298.667,293.954,294.846,290.134,290.133,290.134z" data-original="#F2C127"/><g>
	<path style="fill:#E1A527;" d="M230.4,349.867v-51.2c0-4.713,3.821-8.533,8.533-8.533h-17.067c-4.713,0-8.533,3.821-8.533,8.533   v51.2c0,4.713,3.821,8.533,8.533,8.533h17.067C234.221,358.4,230.4,354.581,230.4,349.867z" data-original="#E1A527"/>
	<path style="fill:#E1A527;" d="M264.533,332.8h-17.067c-4.713,0-8.533-3.821-8.533-8.533c0-4.713,3.821-8.533,8.533-8.533h17.067   c4.713,0,8.533,3.821,8.533,8.533C273.067,328.979,269.246,332.8,264.533,332.8z" data-original="#E1A527"/>
</g><path style="fill:#FDDD85;" d="M307.2,358.4H204.8c-4.713,0-8.533,3.821-8.533,8.533v102.4c0,4.713,3.821,8.533,8.533,8.533h102.4  c4.713,0,8.533-3.821,8.533-8.533v-102.4C315.733,362.221,311.913,358.4,307.2,358.4z" data-original="#FDDD85"/><g>
	<path style="fill:#FDD042;" d="M213.333,469.334v-102.4c0-4.713,3.821-8.533,8.533-8.533H204.8c-4.713,0-8.533,3.821-8.533,8.533   v102.4c0,4.713,3.821,8.533,8.533,8.533h17.067C217.154,477.867,213.333,474.047,213.333,469.334z" data-original="#FDD042"/>
	<path style="fill:#FDD042;" d="M273.067,358.4h-34.133c-4.713,0-8.533,3.821-8.533,8.533v51.2c0,4.713,3.821,8.533,8.533,8.533   h34.133c4.713,0,8.533-3.821,8.533-8.533v-51.2C281.6,362.221,277.779,358.4,273.067,358.4z" data-original="#FDD042"/>
</g><path style="fill:#606268;" d="M273.067,452.267h-34.133c-4.713,0-8.533-3.821-8.533-8.533c0-4.713,3.821-8.533,8.533-8.533h34.133  c4.713,0,8.533,3.821,8.533,8.533C281.6,448.446,277.779,452.267,273.067,452.267z" data-original="#606268"/><g>
	<path style="fill:#FDE5A2;" d="M256,249.537c-4.713,0-8.533-3.821-8.533-8.533v-17.067c0-4.713,3.821-8.533,8.533-8.533   c4.713,0,8.533,3.821,8.533,8.533v17.067C264.533,245.718,260.713,249.537,256,249.537z" data-original="#FDE5A2"/>
	<path style="fill:#FDE5A2;" d="M219.796,264.534c-2.185,0-4.368-0.833-6.034-2.499l-12.067-12.067   c-3.332-3.332-3.332-8.735,0-12.067c3.333-3.332,8.735-3.332,12.068,0l12.067,12.067c3.332,3.332,3.332,8.735,0,12.067   C224.163,263.701,221.981,264.534,219.796,264.534z" data-original="#FDE5A2"/>
	<path style="fill:#FDE5A2;" d="M292.205,264.534c-2.185,0-4.368-0.833-6.034-2.499c-3.332-3.332-3.332-8.735,0-12.067   l12.067-12.067c3.333-3.332,8.735-3.332,12.068,0c3.332,3.332,3.332,8.735,0,12.067l-12.067,12.067   C296.572,263.701,294.388,264.534,292.205,264.534z" data-original="#FDE5A2"/>
</g></g> </svg>
