<?xml version="1.0" standalone="no"?>
<!DOCTYPE svg PUBLIC "-//W3C//DTD SVG 20010904//EN"
 "http://www.w3.org/TR/2001/REC-SVG-20010904/DTD/svg10.dtd">
<svg version="1.0" xmlns="http://www.w3.org/2000/svg"
 width="52.000000pt" height="52.000000pt" viewBox="0 0 52.000000 52.000000"
 preserveAspectRatio="xMidYMid meet">
<metadata>
Created by potrace 1.15, written by Peter Selinger 2001-2017
</metadata>
<g transform="translate(0.000000,52.000000) scale(0.100000,-0.100000)"
fill="#000000" stroke="none">
<path d="M145 501 c-50 -23 -109 -84 -130 -133 -19 -47 -20 -158 -1 -203 24
-58 63 -100 118 -131 44 -23 65 -28 123 -28 151 0 259 107 259 259 0 152 -105
255 -261 255 -45 0 -82 -7 -108 -19z m207 -52 c83 -42 134 -153 108 -235 -7
-21 -19 -49 -27 -62 l-14 -23 -26 21 c-14 11 -29 20 -34 20 -4 0 -20 5 -34 10
l-27 10 25 43 c25 42 32 93 21 150 -11 54 -127 79 -158 35 -24 -34 -21 -138 5
-182 22 -38 19 -56 -10 -56 -10 0 -35 -11 -55 -25 l-36 -24 -21 42 c-91 178
102 367 283 276z"/>
</g>
</svg>
