<?xml version="1.0"?>
<svg xmlns="http://www.w3.org/2000/svg" xmlns:xlink="http://www.w3.org/1999/xlink" version="1.1" id="Capa_1" x="0px" y="0px" viewBox="0 0 511 511" style="enable-background:new 0 0 511 511;" xml:space="preserve" width="512px" height="512px" class=""><g><g>
	<g>
		<circle style="fill:#F5AF50;" cx="255.5" cy="455.5" r="48" data-original="#F5AF50"/>
		<path style="fill:#F4A63D;" d="M279.5,495.5c-26.51,0-48-21.49-48-48c0-16.649,8.48-31.315,21.353-39.924    c-25.278,1.375-45.353,22.303-45.353,47.924c0,26.51,21.49,48,48,48c9.86,0,19.023-2.977,26.647-8.076    C281.271,495.472,280.389,495.5,279.5,495.5z" data-original="#F4A63D"/>
		<path style="fill:#F4DC50;" d="M215.5,47.5c0-22.091,17.909-40,40-40s40,17.909,40,40s-17.909,40-40,40S215.5,69.591,215.5,47.5z     M255.5,63.5c8.837,0,16-7.163,16-16s-7.163-16-16-16c-8.837,0-16,7.163-16,16S246.663,63.5,255.5,63.5z" data-original="#F4DC50" class=""/>
		<path style="fill:#F4DC50;" d="M367.5,215.5c0-104-64-136-112-136s-112,32-112,136c0,152-80,184-80,184h384    C447.5,399.5,367.5,367.5,367.5,215.5z" data-original="#F4DC50" class=""/>
		<path style="fill:#F2D83D;" d="M183.5,215.5c0-90.041,47.972-126.106,92-134.167c-6.826-1.25-13.557-1.833-20-1.833    c-48,0-112,32-112,136c0,152-80,184-80,184h40C103.5,399.5,183.5,367.5,183.5,215.5z" data-original="#F2D83D"/>
		<path style="fill:#F6E477;" d="M455.5,447.5h-400c-8.837,0-16-7.163-16-16v-24c0-8.837,7.163-16,16-16h400c8.837,0,16,7.163,16,16    v24C471.5,440.337,464.337,447.5,455.5,447.5z" data-original="#F6E477" class=""/>
		<path style="fill:#F4DC50;" d="M87.5,431.5v-24c0-8.836,7.163-16,16-16h-48c-8.837,0-16,7.164-16,16v24c0,8.836,7.163,16,16,16h48    C94.663,447.5,87.5,440.336,87.5,431.5z" data-original="#F4DC50" class=""/>
	</g>
	<g>
		<path d="M279,47.5c0-12.958-10.542-23.5-23.5-23.5S232,34.542,232,47.5S242.542,71,255.5,71S279,60.458,279,47.5z M247,47.5    c0-4.687,3.813-8.5,8.5-8.5s8.5,3.813,8.5,8.5s-3.813,8.5-8.5,8.5S247,52.187,247,47.5z" data-original="#000000" class="active-path" style="fill:#000000"/>
		<path d="M455.5,384h-19.931c-0.448-0.888-1.079-1.703-1.892-2.38C411.763,363.362,375,317.501,375,215.5    c0-49.061-13.566-86.886-40.321-112.425c-13.796-13.169-28.802-20.872-42.582-25.319C299.053,69.345,303,58.7,303,47.5    C303,21.309,281.691,0,255.5,0S208,21.309,208,47.5c0,11.268,3.87,21.854,10.864,30.269c-13.769,4.449-28.76,12.15-42.543,25.306    C149.566,128.614,136,166.439,136,215.5c0,102.463-37.034,148.284-59.109,166.478c-0.708,0.583-1.273,1.273-1.708,2.022H55.5    C42.542,384,32,394.542,32,407.5v24c0,12.958,10.542,23.5,23.5,23.5h144.509c-0.001,0.167-0.009,0.334-0.009,0.5    c0,30.603,24.897,55.5,55.5,55.5s55.5-24.897,55.5-55.5c0-0.167-0.008-0.333-0.009-0.5H455.5c12.958,0,23.5-10.542,23.5-23.5v-24    C479,394.542,468.458,384,455.5,384z M235.961,73.474C227.724,67.266,223,57.798,223,47.5c0-17.92,14.58-32.5,32.5-32.5    S288,29.58,288,47.5c0,10.324-4.892,19.966-13.145,26.096C267.35,72.368,260.705,72,255.5,72c-5.213,0-11.869,0.369-19.387,1.601    C236.061,73.56,236.015,73.514,235.961,73.474z M296,455.5c0,22.332-18.168,40.5-40.5,40.5S215,477.832,215,455.5    c0-0.166,0.007-0.333,0.009-0.5h80.981C295.993,455.167,296,455.333,296,455.5z M464,431.5c0,4.687-3.813,8.5-8.5,8.5h-400    c-4.687,0-8.5-3.813-8.5-8.5v-24c0-4.687,3.813-8.5,8.5-8.5h293c4.142,0,7.5-3.358,7.5-7.5s-3.358-7.5-7.5-7.5H96.761    C120.57,359.482,151,309.708,151,215.5C151,120.654,207.293,87,255.5,87S360,120.654,360,215.5    c0,94.32,30.553,144.094,54.239,168.5H382.5c-4.142,0-7.5,3.358-7.5,7.5s3.358,7.5,7.5,7.5h73c4.687,0,8.5,3.813,8.5,8.5V431.5z" data-original="#000000" class="active-path" style="fill:#000000"/>
		<path d="M391.5,151c4.687,0,8.5,3.813,8.5,8.5c0,4.142,3.358,7.5,7.5,7.5s7.5-3.358,7.5-7.5c0-12.958-10.542-23.5-23.5-23.5    c-4.142,0-7.5,3.358-7.5,7.5S387.358,151,391.5,151z" data-original="#000000" class="active-path" style="fill:#000000"/>
		<path d="M391.5,111c26.743,0,48.5,21.757,48.5,48.5c0,4.142,3.358,7.5,7.5,7.5s7.5-3.358,7.5-7.5c0-35.014-28.486-63.5-63.5-63.5    c-4.142,0-7.5,3.358-7.5,7.5S387.358,111,391.5,111z" data-original="#000000" class="active-path" style="fill:#000000"/>
		<path d="M391.5,56c-4.142,0-7.5,3.358-7.5,7.5s3.358,7.5,7.5,7.5c48.799,0,88.5,39.701,88.5,88.5c0,4.142,3.358,7.5,7.5,7.5    s7.5-3.358,7.5-7.5C495,102.43,448.57,56,391.5,56z" data-original="#000000" class="active-path" style="fill:#000000"/>
		<path d="M119.5,136c-12.958,0-23.5,10.542-23.5,23.5c0,4.142,3.358,7.5,7.5,7.5s7.5-3.358,7.5-7.5c0-4.687,3.813-8.5,8.5-8.5    c4.142,0,7.5-3.358,7.5-7.5S123.642,136,119.5,136z" data-original="#000000" class="active-path" style="fill:#000000"/>
		<path d="M119.5,96C84.486,96,56,124.486,56,159.5c0,4.142,3.358,7.5,7.5,7.5s7.5-3.358,7.5-7.5c0-26.743,21.757-48.5,48.5-48.5    c4.142,0,7.5-3.358,7.5-7.5S123.642,96,119.5,96z" data-original="#000000" class="active-path" style="fill:#000000"/>
		<path d="M119.5,71c4.142,0,7.5-3.358,7.5-7.5s-3.358-7.5-7.5-7.5C62.43,56,16,102.43,16,159.5c0,4.142,3.358,7.5,7.5,7.5    s7.5-3.358,7.5-7.5C31,110.701,70.701,71,119.5,71z" data-original="#000000" class="active-path" style="fill:#000000"/>
	</g>
</g></g> </svg>
