<?xml version="1.0" standalone="no"?>
<!DOCTYPE svg PUBLIC "-//W3C//DTD SVG 20010904//EN"
 "http://www.w3.org/TR/2001/REC-SVG-20010904/DTD/svg10.dtd">
<svg version="1.0" xmlns="http://www.w3.org/2000/svg"
 width="200.000000pt" height="200.000000pt" viewBox="0 0 200.000000 200.000000"
 preserveAspectRatio="xMidYMid meet">
<metadata>
Created by potrace 1.15, written by Peter Selinger 2001-2017
</metadata>
<g transform="translate(0.000000,200.000000) scale(0.100000,-0.100000)"
fill="#000000" stroke="none">
<path d="M655 1693 c-141 -30 -277 -96 -433 -212 -158 -117 -150 -169 49 -316
132 -97 261 -155 402 -180 l82 -14 282 281 c189 189 279 286 273 293 -16 20
-183 102 -250 123 -139 45 -276 53 -405 25z m234 -89 c96 -28 174 -120 191
-228 l8 -51 -132 -134 -133 -133 -55 11 c-141 30 -239 159 -225 297 9 92 65
177 142 216 80 42 124 46 204 22z"/>
<path d="M762 1443 c-105 -52 -66 -213 52 -213 35 0 50 6 75 29 26 25 31 36
31 78 0 58 -19 90 -66 109 -42 18 -51 17 -92 -3z"/>
<path d="M1526 1600 l-81 -79 130 -131 c71 -71 134 -130 140 -130 6 0 43 33
83 73 101 102 101 105 -37 240 -74 73 -115 107 -131 107 -15 0 -50 -27 -104
-80z"/>
<path d="M1007 1082 c-218 -218 -397 -402 -397 -407 0 -6 59 -69 130 -140
l130 -130 403 403 402 402 -135 135 -135 135 -398 -398z"/>
<path d="M550 607 c0 -1 -9 -65 -20 -142 -11 -77 -20 -145 -20 -151 0 -7 50
-4 153 9 83 11 154 22 157 24 5 5 -252 263 -262 263 -5 0 -8 -1 -8 -3z"/>
</g>
</svg>
