<?xml version="1.0"?>
<svg xmlns="http://www.w3.org/2000/svg" height="512px" viewBox="0 0 512 512" width="512px"><g><link xmlns="" type="text/css" id="dark-mode" rel="stylesheet"/><style xmlns="" type="text/css" id="dark-mode-custom-style"/><path d="m501.632812 198.445312c-39.054687-12.675781-79.566406-19.777343-120.632812-21.167968v-177.277344h-381v512h368.40625l2.289062-.753906c40.789063-13.445313 75.859376-38.925782 101.417969-73.683594 26.09375-35.488281 39.886719-77.589844 39.886719-121.761719v-113.988281zm-471.632812 283.554688v-452h321v147.277344c-41.066406 1.390625-81.578125 8.492187-120.632812 21.167968l-10.367188 3.367188v113.988281c0 44.171875 13.792969 86.273438 39.886719 121.761719 12.640625 17.195312 27.613281 32.117188 44.453125 44.4375zm452-166.199219c0 74.402344-46.410156 140.222657-116 165.332031-69.589844-25.109374-116-90.929687-116-165.332031v-92.027343c75.21875-22.171876 156.78125-22.171876 232 0zm0 0" data-original="#000000" fill="#000000"/><path d="m60 181h130v30h-130zm0 0" data-original="#000000" fill="#000000"/><path d="m60 121h261v30h-261zm0 0" data-original="#000000" fill="#000000"/><path d="m60 241h130v30h-130zm0 0" data-original="#000000" fill="#000000"/><path d="m60 301h130v30h-130zm0 0" data-original="#000000" fill="#000000"/><path d="m60 361h130v30h-130zm0 0" data-original="#000000" fill="#000000"/><path d="m292.082031 244.265625-12.082031 2.394531v69.140625c0 55.011719 30.335938 104.71875 79.164062 129.722657l6.835938 3.5 6.835938-3.5c48.828124-25.003907 79.164062-74.710938 79.164062-129.722657v-69.140625l-12.082031-2.394531c-48.449219-9.613281-99.386719-9.613281-147.835938 0zm19.195313 88.757813h39.722656v71.300781c-21.433594-18.03125-35.578125-43.289063-39.722656-71.300781zm69.722656 71.300781v-71.300781h39.722656c-4.144531 28.011718-18.289062 53.269531-39.722656 71.300781zm41-101.300781h-112v-31.507813c36.914062-5.96875 75.085938-5.96875 112 0zm0 0" data-original="#000000" fill="#000000"/></g> </svg>
