<?xml version="1.0"?>
<svg xmlns="http://www.w3.org/2000/svg" height="512px" viewBox="0 -15 512 512" width="512px"><g><link xmlns="" type="text/css" id="dark-mode" rel="stylesheet"/><style xmlns="" type="text/css" id="dark-mode-custom-style"/><path d="m261.984375 15.664062c0-8.648437-7.015625-15.664062-15.664063-15.664062h-230.65625c-8.648437 0-15.664062 7.015625-15.664062 15.664062v99.804688h261.984375zm-124.429687 57.726563h-94.433594c-8.644532 0-15.664063-7.007813-15.664063-15.667969 0-8.636718 7.019531-15.664062 15.664063-15.664062h94.433594c8.648437 0 15.667968 7.027344 15.667968 15.664062 0 8.660156-7.019531 15.667969-15.667968 15.667969zm76.148437.007813h-21.933594c-8.648437 0-15.664062-7.015626-15.664062-15.664063 0-8.660156 7.015625-15.667969 15.664062-15.667969h21.933594c8.648437 0 15.664063 7.007813 15.664063 15.667969 0 8.648437-7.015626 15.664063-15.664063 15.664063zm0 0" data-original="#000000" fill="#000000"/><path d="m182.320312 293.597656h-182.320312v99.824219c0 8.648437 7.015625 15.664063 15.664062 15.664063h180.285157c-17.308594-36.46875-21.683594-77.253907-13.628907-115.488282zm-44.765624 78.289063h-94.433594c-8.644532 0-15.664063-7.007813-15.664063-15.667969 0-8.636719 7.019531-15.664062 15.664063-15.664062h94.433594c8.648437 0 15.667968 7.027343 15.667968 15.664062 0 8.660156-7.019531 15.667969-15.667968 15.667969zm0 0" data-original="#000000" fill="#000000"/><path d="m261.984375 177.847656v-31.046875h-261.984375v115.464844h191.917969c14.210937-34.765625 38.882812-64.230469 70.066406-84.417969zm-124.429687 44.792969h-94.433594c-8.644532 0-15.664063-7.015625-15.664063-15.664063 0-8.65625 7.019531-15.664062 15.664063-15.664062h94.433594c8.648437 0 15.667968 7.007812 15.667968 15.664062 0 8.648438-7.019531 15.664063-15.667968 15.664063zm0 0" data-original="#000000" fill="#000000"/><path d="m360.886719 179.980469c-83.207031 0-151.121094 67.644531-151.121094 151.132812 0 83.246094 67.726563 151.101563 151.121094 151.101563 83.320312 0 151.113281-67.792969 151.113281-151.101563 0-83.332031-67.792969-151.132812-151.113281-151.132812zm95.332031 87.90625-55.53125 79.496093v78.433594c0 8.648438-7.007812 15.667969-15.664062 15.667969h-48.398438c-8.644531 0-15.664062-7.019531-15.664062-15.667969v-78.601562c-57.117188-81.742188-2.882813-4.125-55.414063-79.328125-7.050781-10.109375-.179687-24.042969 12.101563-24.597657.671874-.0625-6.367188-.042968 165.734374-.042968 12.605469 0 20.09375 14.226562 12.835938 24.640625zm0 0" data-original="#000000" fill="#000000"/><path d="m349.472656 333.320312c1.839844 2.632813 2.820313 5.765626 2.820313 8.972657v67.863281h17.066406v-67.71875c0-3.207031.992187-6.339844 2.828125-8.972656l41.140625-58.882813h-104.890625zm0 0" data-original="#000000" fill="#000000"/></g> </svg>
