<svg id="svg" version="1.1" width="423" height="423" xmlns="http://www.w3.org/2000/svg" xmlns:xlink="http://www.w3.org/1999/xlink" ><g id="svgg"><path id="path0" d="M173.050 1.519 C 49.157 18.045,-29.229 144.060,9.991 263.656 C 46.743 375.727,174.199 431.537,282.758 383.096 C 386.240 336.920,430.372 211.778,379.176 109.693 C 341.089 33.746,258.069 -9.822,173.050 1.519 M123.606 89.733 C 126.095 90.718,132.600 93.650,138.061 96.249 C 150.623 102.226,177.730 111.021,200.946 116.650 C 221.955 121.744,228.853 124.808,239.451 133.751 L 246.750 139.911 252.690 134.863 C 255.956 132.087,259.813 128.381,261.260 126.627 C 283.654 99.487,304.290 99.802,336.966 127.781 L 339.868 130.266 330.736 134.708 C 324.746 137.622,320.430 140.449,318.194 142.925 L 314.784 146.699 315.437 167.203 C 316.328 195.197,313.800 205.363,302.946 217.436 C 292.703 228.829,262.710 245.553,244.444 250.057 C 240.804 250.954,235.697 252.279,233.097 253.001 C 226.989 254.695,209.376 258.152,206.754 258.171 C 201.892 258.205,202.398 259.639,210.019 267.414 C 217.524 275.072,221.701 277.550,223.151 275.204 C 223.667 274.370,224.064 274.333,224.524 275.076 C 224.880 275.652,224.693 276.123,224.110 276.123 C 223.526 276.123,223.171 276.868,223.321 277.778 C 223.471 278.688,223.287 279.920,222.913 280.516 C 222.539 281.111,222.847 281.834,223.598 282.122 C 224.474 282.459,224.788 282.190,224.474 281.371 C 224.205 280.670,224.408 279.835,224.927 279.515 C 225.445 279.194,226.132 279.762,226.454 280.777 C 226.776 281.791,227.764 282.812,228.650 283.045 C 229.535 283.278,228.818 283.518,227.055 283.578 C 225.292 283.639,223.377 284.283,222.799 285.011 C 221.331 286.862,217.494 287.905,217.494 286.454 C 217.494 285.825,215.473 282.986,213.002 280.146 C 207.127 273.391,204.485 269.895,205.929 270.788 C 208.654 272.472,206.786 269.656,202.568 265.721 C 200.059 263.381,198.701 261.998,199.550 262.648 C 201.470 264.117,203.124 264.211,201.681 262.769 C 201.098 262.185,200.851 261.109,201.132 260.376 C 201.694 258.911,201.125 258.954,184.454 261.642 C 163.686 264.991,157.686 268.275,124.515 294.449 C 102.858 311.538,99.291 313.751,99.291 310.102 C 99.291 308.606,98.865 308.282,97.479 308.722 C 90.548 310.922,95.599 304.091,115.256 284.682 C 125.554 274.513,137.380 261.939,141.536 256.738 C 156.915 237.491,175.989 211.548,175.241 210.896 C 174.816 210.526,164.673 206.998,152.702 203.055 C 114.084 190.335,100.789 183.564,85.081 168.616 C 76.096 160.066,66.194 147.879,66.194 145.372 C 66.194 144.523,65.453 143.414,64.547 142.908 C 58.130 139.317,70.333 140.198,88.889 144.666 C 109.070 149.525,141.051 153.199,162.944 153.174 L 178.251 153.156 173.522 150.244 C 156.355 139.671,152.294 136.977,145.726 131.802 C 134.997 123.351,117.258 98.467,117.258 91.870 C 117.258 90.959,116.747 89.702,116.123 89.078 C 114.337 87.292,118.313 87.640,123.606 89.733 M303.888 122.459 C 303.129 124.436,304.162 126.714,305.817 126.714 C 307.359 126.714,308.723 123.478,307.807 121.994 C 306.921 120.561,304.506 120.847,303.888 122.459 M216.021 265.329 C 216.569 266.325,217.997 268.522,219.195 270.213 C 220.393 271.903,221.032 273.254,220.616 273.215 C 219.580 273.117,209.727 261.806,209.143 260.045 C 208.520 258.168,214.690 262.908,216.021 265.329 M261.248 265.153 C 260.220 265.725,259.565 266.726,259.792 267.376 C 260.019 268.026,259.544 268.558,258.737 268.558 C 257.816 268.558,257.474 268.026,257.818 267.129 C 258.215 266.095,257.934 265.866,256.803 266.300 C 255.943 266.630,255.398 267.376,255.592 267.959 C 255.987 269.143,247.643 271.695,244.000 271.504 C 242.715 271.437,239.524 271.976,236.908 272.702 C 224.052 276.271,222.306 273.867,234.988 270.059 C 239.669 268.653,244.896 266.890,246.604 266.139 C 248.312 265.389,251.585 264.775,253.877 264.775 C 256.169 264.775,258.283 264.390,258.574 263.919 C 258.865 263.447,260.007 263.298,261.110 263.587 C 263.084 264.103,263.086 264.128,261.248 265.153 M207.488 278.588 C 208.499 278.976,208.983 280.361,208.983 282.862 C 208.983 286.373,209.108 286.530,211.441 285.944 L 213.899 285.327 211.678 287.637 C 210.324 289.044,209.041 289.641,208.394 289.165 C 207.810 288.735,206.533 288.656,205.557 288.989 C 204.167 289.463,204.244 289.250,205.910 288.006 C 208.787 285.858,208.205 281.292,204.728 278.738 C 203.554 277.875,205.373 277.777,207.488 278.588 M192.435 279.634 C 189.687 280.295,188.374 281.797,190.544 281.797 C 194.754 281.797,190.103 283.632,184.397 284.223 C 181.017 284.572,176.123 285.189,173.522 285.593 C 170.449 286.070,168.132 285.955,166.903 285.264 C 165.055 284.227,165.060 284.195,167.139 283.879 C 168.310 283.702,169.274 283.054,169.282 282.440 C 169.292 281.626,169.497 281.641,170.039 282.494 C 170.588 283.359,171.628 283.421,174.022 282.735 C 175.804 282.224,178.037 282.052,178.984 282.352 C 179.932 282.653,181.675 282.265,182.858 281.490 C 185.159 279.982,188.152 279.229,191.962 279.198 C 193.811 279.183,193.914 279.278,192.435 279.634 M204.255 280.851 C 204.255 281.371,203.617 281.797,202.837 281.797 C 202.057 281.797,201.418 281.371,201.418 280.851 C 201.418 280.331,202.057 279.905,202.837 279.905 C 203.617 279.905,204.255 280.331,204.255 280.851 M242.790 281.503 C 241.879 281.741,240.390 281.741,239.480 281.503 C 238.570 281.265,239.314 281.070,241.135 281.070 C 242.955 281.070,243.700 281.265,242.790 281.503 M236.170 282.449 C 235.260 282.686,233.771 282.686,232.861 282.449 C 231.950 282.211,232.695 282.016,234.515 282.016 C 236.336 282.016,237.080 282.211,236.170 282.449 M176.832 289.798 C 176.832 290.501,169.127 292.374,168.562 291.808 C 168.279 291.525,169.066 290.886,170.312 290.388 C 172.701 289.432,176.832 289.058,176.832 289.798 " stroke="none" fill="#ffffff" fill-rule="evenodd"></path></g></svg>