<?xml version="1.0"?>
<svg xmlns="http://www.w3.org/2000/svg" height="512px" viewBox="0 -46 512 511" width="512px" class=""><g><path d="m497.003906 90.484375h-53.265625c-39.878906-55.257813-103.109375-88.492187-171.386719-89.914063-.464843-.042968-.929687-.070312-1.40625-.070312-.25 0-.492187.023438-.742187.039062-.808594-.011718-1.613281-.039062-2.421875-.039062h-23.664062c-70.019532 0-135.1875 33.492188-175.957032 89.984375h-53.164062c-8.28125 0-14.996094 6.710937-14.996094 14.996094v179.964843c0 8.28125 6.714844 14.996094 14.996094 14.996094h60.988281c8.28125 0 14.996094-6.714844 14.996094-14.996094v-74.984374h329.9375v74.984374c0 8.28125 6.714843 14.996094 14.996093 14.996094h61.089844c8.28125 0 14.996094-6.714844 14.996094-14.996094v-179.964843c0-8.285157-6.714844-14.996094-14.996094-14.996094zm-15 119.976563h-31.09375v-89.984376h31.09375zm-286.042968-107.777344c18.679687-7.941406 39.023437-12.199219 59.988281-12.199219v89.980469h-59.988281zm-29.992188 77.78125h-52.734375l15.089844-21.488282c.070312-.101562.140625-.199218.207031-.300781 10.238281-15.355469 22.960938-28.472656 37.4375-38.992187zm119.976562-87.019532c21.765626 4.328126 42.203126 13.3125 59.988282 26.234376v60.785156h-59.988282zm0-62.066406c20.976563 2.03125 41.222657 7.546875 59.988282 16.167969v36.535156c-18.480469-10.425781-38.757813-17.613281-59.988282-21.121093zm89.980469 117.089844c2.589844 3.269531 5.070313 6.648438 7.410157 10.160156l14.441406 21.835938h-21.851563zm44.992188-38.324219v50.9375l-12.59375-19.046875c-9.230469-13.847656-20.160157-26.167968-32.398438-36.792968v-40.367188c17.25 12.230469 32.507813 27.464844 44.992188 45.269531zm-164.96875-79.648437v29.992187c-20.738281 0-40.96875 3.492188-59.988281 10.074219v-33.777344c15.515624-4.117187 31.675781-6.289062 48.15625-6.289062zm-89.980469 17.050781v36.535156c-24.621094 13.890625-46.054688 33.503907-62.289062 57.796875l-12.699219 18.082032v-49.816407c19.324219-27.558593 45.292969-48.957031 74.988281-62.597656zm-104.980469 72.929687v89.984376h-30.992187v-89.984376zm-30.992187 149.972657v-29.996094h30.992187v29.996094zm420.914062 0v-29.996094h31.09375v29.996094zm0 0" data-original="#000000" class="" fill="#000000"/><path d="m375.925781 390.425781h-179.964843c-8.28125 0-14.996094 6.710938-14.996094 14.996094 0 8.28125 6.714844 14.996094 14.996094 14.996094h179.964843c8.28125 0 14.996094-6.714844 14.996094-14.996094 0-8.285156-6.714844-14.996094-14.996094-14.996094zm0 0" data-original="#000000" class="" fill="#000000"/><path d="m435.914062 360.429688c8.28125 0 14.996094-6.714844 14.996094-14.996094 0-8.285156-6.714844-14.996094-14.996094-14.996094h-59.988281c-8.28125 0-14.996093 6.710938-14.996093 14.996094 0 8.28125 6.714843 14.996094 14.996093 14.996094zm0 0" data-original="#000000" class="" fill="#000000"/><path d="m315.9375 360.429688c8.28125 0 14.996094-6.714844 14.996094-14.996094 0-8.285156-6.714844-14.996094-14.996094-14.996094h-29.992188c-8.285156 0-15 6.710938-15 14.996094 0 8.28125 6.714844 14.996094 15 14.996094zm0 0" data-original="#000000" class="" fill="#000000"/><path d="m495.902344 390.425781h-59.988282c-8.28125 0-14.996093 6.710938-14.996093 14.996094 0 8.28125 6.714843 14.996094 14.996093 14.996094h59.988282c8.28125 0 14.996094-6.714844 14.996094-14.996094 0-8.285156-6.714844-14.996094-14.996094-14.996094zm0 0" data-original="#000000" class="" fill="#000000"/><path d="m240.953125 345.433594c0-8.285156-6.714844-14.996094-14.996094-14.996094h-179.964843c-8.285157 0-15 6.710938-15 14.996094 0 8.28125 6.714843 14.996094 15 14.996094h179.964843c8.28125 0 14.996094-6.714844 14.996094-14.996094zm0 0" data-original="#000000" class="" fill="#000000"/></g> </svg>
