<?xml version="1.0"?>
<svg xmlns="http://www.w3.org/2000/svg" height="512px" viewBox="0 -90 512 512" width="512px"><g><g fill="#00accc"><path d="m462.464844 10.21875c.148437.015625.292968.027344.441406.046875-.148438-.019531-.292969-.03125-.441406-.046875zm0 0" data-original="#000000"/><path d="m47.976562 10.402344c.167969-.023438.339844-.046875.511719-.066406-.171875.019531-.34375.042968-.511719.066406zm0 0" data-original="#000000"/><path d="m52.539062 10.023438c.085938 0 .167969-.003907.253907-.007813-.085938.003906-.167969.007813-.253907.007813zm0 0" data-original="#000000"/><path d="m51.964844 10.046875c.089844-.003906.179687-.007813.269531-.011719-.089844.003906-.179687.007813-.269531.011719zm0 0" data-original="#000000"/><path d="m461.929688 10.167969c.140624.011719.277343.027343.417968.039062-.140625-.015625-.28125-.027343-.417968-.039062zm0 0" data-original="#000000"/><path d="m53.136719 10.011719c.070312-.003907.136719-.003907.207031-.003907-.066406 0-.136719 0-.207031.003907zm0 0" data-original="#000000"/><path d="m464.035156 10.402344c9.347656 1.265625 17.757813 5.480468 24.277344 11.667968l-187.527344 140.277344c-2.453125 9.46875-7.832031 17.757813-15.117187 23.851563-3.71875 3.113281-4.664063 8.457031-2.410157 12.753906l20.292969 38.710937c3.355469 6.402344-1.285156 14.078126-8.515625 14.078126h-78.074218c-7.226563 0-11.871094-7.675782-8.515626-14.078126l20.296876-38.714843c2.300781-4.386719 1.15625-9.726563-2.625-12.929688-7.175782-6.078125-12.472657-14.296875-14.902344-23.671875l-187.527344-140.277344c6.519531-6.1875 14.929688-10.402343 24.277344-11.667968-21.4375 2.898437-37.964844 21.269531-37.964844 43.503906v224.464844c0 24.25 19.65625 43.90625 43.902344 43.90625h404.195312c24.246094 0 43.902344-19.65625 43.902344-43.90625v-224.464844c0-22.234375-16.527344-40.605469-37.964844-43.503906zm0 0" data-original="#000000"/><path d="m50.785156 10.113281c.117188-.007812.238282-.015625.359375-.023437-.121093.007812-.242187.015625-.359375.023437zm0 0" data-original="#000000"/><path d="m51.375 10.074219c.105469-.003907.210938-.011719.316406-.015625-.105468.003906-.210937.011718-.316406.015625zm0 0" data-original="#000000"/><path d="m50.210938 10.15625c.132812-.011719.265624-.019531.398437-.03125-.132813.011719-.265625.019531-.398437.03125zm0 0" data-original="#000000"/><path d="m49.65625 10.207031c.136719-.011719.277344-.027343.414062-.039062-.136718.011719-.277343.023437-.414062.039062zm0 0" data-original="#000000"/><path d="m463.511719 10.335938c.171875.019531.34375.042968.511719.0625-.167969-.019532-.339844-.042969-.511719-.0625zm0 0" data-original="#000000"/><path d="m462.992188 10.273438c.164062.019531.324218.039062.484374.054687-.160156-.019531-.320312-.035156-.484374-.054687zm0 0" data-original="#000000"/><path d="m459.207031 10.015625c.085938.003906.171875.007813.253907.007813-.085938 0-.167969-.003907-.253907-.007813zm0 0" data-original="#000000"/><path d="m460.855469 10.089844c.121093.007812.242187.015625.359375.023437-.117188-.007812-.238282-.015625-.359375-.023437zm0 0" data-original="#000000"/><path d="m459.765625 10.035156c.089844 0 .179687.007813.269531.011719-.089844-.003906-.179687-.007813-.269531-.011719zm0 0" data-original="#000000"/><path d="m48.523438 10.328125c.160156-.019531.320312-.035156.484374-.054687-.164062.019531-.324218.035156-.484374.054687zm0 0" data-original="#000000"/><path d="m460.308594 10.058594c.105468.003906.210937.011718.316406.015625-.105469-.003907-.210938-.011719-.316406-.015625zm0 0" data-original="#000000"/><path d="m49.09375 10.265625c.148438-.019531.292969-.03125.441406-.046875-.148437.015625-.292968.027344-.441406.046875zm0 0" data-original="#000000"/><path d="m461.390625 10.125c.132813.011719.265625.019531.398437.03125-.132812-.011719-.265624-.019531-.398437-.03125zm0 0" data-original="#000000"/><path d="m458.65625 10.007812c.066406 0 .136719 0 .207031.003907-.070312-.003907-.140625-.003907-.207031-.003907zm0 0" data-original="#000000"/></g><path d="m211.214844 162.347656c-.964844-3.714844-1.476563-7.613281-1.476563-11.628906 0-26.152344 21.695313-47.234375 48.066407-46.230469 24.273437.925781 43.921874 20.921875 44.445312 45.203125.097656 4.378906-.417969 8.625-1.464844 12.65625l187.527344-140.273437c-6.519531-6.1875-14.929688-10.402344-24.277344-11.671875-.003906 0-.007812 0-.011718 0-.167969-.023438-.339844-.046875-.511719-.066406-.011719 0-.023438-.003907-.035157-.003907-.160156-.019531-.320312-.039062-.484374-.054687-.027344-.003906-.058594-.007813-.085938-.011719-.148438-.015625-.292969-.03125-.441406-.046875-.039063-.003906-.078125-.007812-.117188-.007812-.140625-.015626-.277344-.027344-.417968-.039063-.046876-.003906-.09375-.007813-.140626-.011719-.132812-.011718-.265624-.023437-.398437-.03125-.058594-.007812-.117187-.011718-.171875-.015625-.121094-.007812-.242188-.015625-.363281-.023437-.074219-.003906-.152344-.007813-.226563-.011719-.105468-.007813-.214844-.011719-.316406-.019531-.09375-.003906-.183594-.007813-.277344-.011719-.089844-.003906-.179687-.007813-.269531-.011719-.101563-.003906-.203125-.007812-.300781-.007812-.085938-.003906-.171875-.007813-.253906-.007813-.117188-.003906-.230469-.007812-.347657-.007812-.066406 0-.136719-.003907-.207031-.003907-.183594-.003906-.371094-.003906-.554688-.003906h-404.199218c-.1875 0-.371094 0-.558594.003906-.066406 0-.136719.003907-.207031.003907-.113281 0-.230469.003906-.34375.007812-.085938 0-.171875.003907-.253907.007813-.101562 0-.203124.003906-.300781.007812-.09375.003906-.183593.007813-.273437.011719s-.183594.007813-.273438.011719c-.105468.007812-.210937.011718-.316406.019531-.074219.003906-.152344.007813-.230469.011719-.121093.007812-.238281.015625-.359375.023437-.058594.003907-.117187.007813-.175781.015625-.132813.007813-.261719.019532-.394531.03125-.046875.003906-.097656.007813-.144532.011719-.136718.011719-.273437.023437-.414062.039063-.039062.003906-.082031.003906-.121094.007812-.144531.015625-.292968.03125-.4375.046875-.03125.003906-.058594.007813-.089844.011719-.160156.015625-.320312.035156-.480468.054687-.011719.003907-.023438.003907-.039063.003907-.171875.019531-.339843.042968-.511719.066406-.003906 0-.007812 0-.007812 0-9.351562 1.269531-17.761719 5.480468-24.277344 11.671875zm0 0" fill="#6fcce3" data-original="#6FCCE3"/><path d="m302.25 149.691406c-.523438-24.28125-20.171875-44.277344-44.445312-45.203125-26.371094-1.003906-48.066407 20.078125-48.066407 46.230469 0 4.015625.511719 7.910156 1.476563 11.625 2.429687 9.378906 7.726562 17.597656 14.902344 23.671875 3.78125 3.203125 4.925781 8.546875 2.625 12.933594l-20.296876 38.714843c-3.355468 6.402344 1.289063 14.078126 8.515626 14.078126h78.074218c7.230469 0 11.875-7.675782 8.515625-14.078126l-20.292969-38.714843c-2.253906-4.292969-1.308593-9.640625 2.410157-12.753907 7.285156-6.089843 12.664062-14.382812 15.117187-23.851562 1.046875-4.027344 1.5625-8.273438 1.464844-12.652344zm0 0" fill="#ffca49" data-original="#FFCA49"/><path d="m512 53.90625c0-15.164062-6.296875-28.886719-16.410156-38.691406-.125-.136719-.257813-.269532-.394532-.398438-10.066406-9.554687-23.242187-14.816406-37.09375-14.816406h-404.203124c-13.851563 0-27.027344 5.261719-37.09375 14.816406-.136719.128906-.269532.261719-.394532.398438-10.113281 9.804687-16.410156 23.527344-16.410156 38.691406v224.46875c0 13.648438 5.097656 26.128906 13.492188 35.636719.148437.1875.304687.375.46875.554687 3.910156 4.316406 8.460937 7.925782 13.441406 10.738282 6.636718 3.761718 14.144531 6.15625 22.140625 6.796874.070312.007813.144531.011719.21875.019532h.003906c1.371094.105468 2.75.160156 4.136719.160156h404.199218c1.382813 0 2.761719-.054688 4.132813-.160156h.007813c.070312-.007813.144531-.011719.21875-.019532 7.992187-.640624 15.5-3.035156 22.136718-6.796874 4.980469-2.8125 9.53125-6.421876 13.441406-10.738282.164063-.179687.320313-.367187.46875-.554687 8.390626-9.507813 13.492188-21.988281 13.492188-35.640625zm-36.976562 253.835938c-4.015626 2.3125-8.488282 3.796874-13.128907 4.324218-1.246093.140625-2.511719.210938-3.796875.210938h-404.195312c-1.285156 0-2.550782-.070313-3.796875-.210938-4.640625-.527344-9.109375-2.007812-13.121094-4.320312-.636719-.367188-1.257813-.753906-1.867187-1.160156l59.859374-75.746094c3.425782-4.332032 2.6875-10.621094-1.648437-14.046875-4.332031-3.425781-10.621094-2.6875-14.042969 1.648437l-57.011718 72.136719c-1.46875-3.789063-2.273438-7.902344-2.273438-12.207031v-224.464844c0-6.671875 1.9375-12.902344 5.28125-18.15625l124.398438 93.058594-24.535157 31.144531c-3.417969 4.335937-2.671875 10.625 1.667969 14.042969 1.832031 1.445312 4.015625 2.144531 6.179688 2.144531 2.960937 0 5.890624-1.308594 7.863281-3.8125l24.84375-31.539063 36.875 27.585938c3.214843 9.722656 9.0625 18.484375 17.078125 25.273438.195312.164062.351562.4375.234375.660156l-20.296875 38.714844c-3.214844 6.132812-2.996094 13.332031.589844 19.257812 3.585937 5.925781 9.855468 9.460938 16.785156 9.460938h78.070312c6.929688 0 13.199219-3.535157 16.785156-9.460938 3.585938-5.925781 3.804688-13.125.589844-19.257812l-20.296875-38.714844c-.109375-.207032-.054687-.40625-.027343-.441406 8.1875-6.847657 14.121093-15.683594 17.359374-25.507813l36.855469-27.570313 130.59375 165.785157c-.609375.410156-1.234375.796875-1.871093 1.167969zm-421.121094-287.738282h404.195312c4.554688 0 8.90625.902344 12.882813 2.542969l-128.839844 96.378906c-.003906 0-.007813.003907-.011719.007813l-30.570312 22.867187c-.007813-.03125-.011719-.066406-.019532-.101562-.023437-.140625-.046874-.28125-.070312-.421875-.011719-.078125-.023438-.15625-.039062-.230469-.015626-.089844-.03125-.179687-.046876-.269531-.023437-.132813-.046874-.269532-.074218-.40625-.007813-.054688-.019532-.109375-.03125-.160156-.035156-.191407-.070313-.382813-.109375-.570313-.003907-.007813-.003907-.015625-.003907-.023437-4.703124-23.476563-24.050781-41.738282-48.152343-44.726563-.03125-.003906-.058594-.007813-.089844-.011719-.175781-.023437-.355469-.042968-.535156-.0625-.070313-.007812-.140625-.015625-.210938-.023437-.128906-.015625-.257812-.027344-.386719-.042969-.101562-.007812-.203124-.019531-.304687-.027344-.082031-.007812-.164063-.019531-.25-.027344-.140625-.011718-.28125-.023437-.425781-.035156-.050782-.003906-.105469-.011718-.15625-.015625-.167969-.011719-.335938-.027343-.503906-.039062-.042969 0-.082032-.003907-.125-.007813-.179688-.011718-.363282-.023437-.546876-.035156-.019531 0-.035156-.003906-.054687-.003906-.410156-.023438-.824219-.042969-1.238281-.0625-.175782-.003906-.355469-.011719-.53125-.015625-.011719 0-.027344 0-.042969 0-.175781-.003907-.351563-.007813-.53125-.011719-.164063-.003906-.328125-.007812-.488281-.007812-.039063 0-.074219 0-.113282 0-.164062-.003907-.324218-.003907-.488281-.003907-.003906 0-.007812 0-.011719 0-.011718 0-.019531 0-.03125 0-.207031 0-.410156 0-.617187.003907-.03125 0-.058594 0-.089844 0-.183593.003906-.371093.007812-.554687.011718-.039063 0-.074219 0-.113282 0-.183593.007813-.363281.011719-.546874.015625-.050782.003907-.101563.003907-.152344.007813-.171875.003906-.34375.011718-.515625.019531-.0625.003906-.125.003906-.1875.007813-.15625.007812-.316407.015624-.472657.027343-.078124.003907-.15625.007813-.234374.011719-.148438.011719-.296876.019531-.445313.03125-.085937.003906-.171875.011719-.257813.015625-.136718.011719-.277343.023437-.414062.035156-.097656.007813-.191406.015625-.285156.023438-.128906.011719-.257813.019531-.386719.03125-.105469.011719-.207031.023437-.3125.03125-.089844.007812-.183594.019531-.273437.027343-.144532.015626-.285157.03125-.425782.046876-.066406.007812-.128906.015624-.195312.019531-.167969.019531-.339844.042969-.507813.0625-.054687.007812-.105469.011719-.15625.019531-.183593.023438-.363281.046875-.542969.070312-.046874.007813-.09375.015626-.140624.019532-.1875.027344-.375.054687-.5625.082031-.035157.007813-.074219.011719-.109376.015625-.203124.03125-.402343.0625-.601562.09375-.027344.003906-.054688.011719-.078125.015625-.222656.035156-.445313.074219-.664063.113281-.003906 0-.003906 0-.007812 0-1.269531.222656-2.53125.492188-3.78125.800782-.003906 0-.007812.003906-.011719.003906-.214843.054687-.433593.109375-.648437.164062-.019532.003906-.035156.011719-.054688.015625-.207031.054688-.414062.109375-.617187.167969-.019531.003906-.039063.007812-.054688.011719-.207031.058593-.414062.117187-.617187.175781-.019532.003906-.035156.007812-.050782.015625-.195312.054687-.386718.113281-.578124.171875-.039063.007812-.074219.019531-.109376.03125-.175781.054688-.351562.109375-.527343.164062-.042969.011719-.089844.027344-.136719.042969-.171875.054688-.339844.109375-.511719.164063-.046875.015625-.09375.03125-.144531.046875-.101562.035156-.203125.070312-.308594.105469-.117187.039062-.230468.078124-.347656.117187-.097656.035156-.195312.070313-.292969.101563-.113281.039062-.222656.078124-.332031.117187-.097656.035156-.195312.074219-.292969.109375-.121093.042969-.238281.085938-.355469.128906-.089843.035156-.175781.066406-.261718.097656-.121094.046876-.238282.089844-.359375.136719-.085938.035157-.171875.066407-.257813.101563-.121094.046875-.242187.097656-.363281.144531-.078125.03125-.15625.0625-.234375.09375-.136719.054687-.269531.109375-.402344.167969-.058594.023437-.121094.046875-.179687.070312-.148438.066406-.296875.128906-.449219.191406-.039062.015626-.078125.035157-.117188.050782-.171874.074218-.339843.148437-.511718.226562-.03125.011719-.066406.027344-.101563.042969-.171875.078125-.347656.15625-.519531.234375-.03125.015625-.058594.027344-.089844.042969-.175781.082031-.355468.164062-.535156.25-.019531.007812-.039062.019531-.058594.027343-.1875.089844-.375.179688-.5625.269532-.007812.007812-.019531.011718-.027344.015625-5.191406 2.542969-10.015624 5.910156-14.308593 10.046875-8.945313 8.609375-14.660157 19.609375-16.550781 31.613281l-30.542969-22.847656c-.019531-.011719-.035157-.027344-.050781-.039063l-128.816407-96.363281c3.972657-1.640625 8.324219-2.542969 12.882813-2.542969zm178.675781 158.382813c-5.707031-4.832031-9.707031-11.214844-11.601563-18.265625-.019531-.085938-.042968-.175782-.0625-.261719-.777343-3.011719-1.175781-6.085937-1.175781-9.136719 0-9.949218 3.949219-19.230468 11.117188-26.128906 3.453125-3.324219 7.433593-5.882812 11.753906-7.597656 4.527344-1.796875 9.425781-2.667969 14.464844-2.523438.121093.003906.238281.007813.355469.011719.355468.011719.707031.03125 1.058593.054687 17.273438 1.160157 31.214844 14.453126 33.457031 31.367188 0 .007812 0 .015625.003907.023438.003906.050781.011719.097656.019531.148437.160156 1.261719.257812 2.542969.285156 3.839844v.035156c.003906.15625.003906.308594.007813.460937v.019532c.003906.511718-.003907 1.023437-.023438 1.535156v.015625c-.003906.160156-.011719.320313-.019531.476563 0 .035156-.003906.074218-.003906.109374-.003906.09375-.011719.1875-.015625.277344-.140625 2.351563-.507813 4.695313-1.105469 6.996094-.035156.132812-.066406.265625-.097656.394531-1.917969 7.074219-5.957032 13.449219-11.742188 18.289063-7.25 6.066406-9.289062 16.609375-4.851562 25.066406l19.996094 38.148438h-76.796876l19.996094-38.148438c4.480469-8.542969 2.417969-18.90625-5.019531-25.207031zm129.742187-49.582031 124.398438-93.054688c3.34375 5.253906 5.28125 11.480469 5.28125 18.15625v224.464844c0 4.292968-.800781 8.402344-2.261719 12.183594zm0 0" fill="#231f20" data-original="#231F20"/><path d="m118.828125 192.019531c-.25-.597656-.558594-1.179687-.917969-1.71875-.359375-.550781-.78125-1.0625-1.238281-1.519531-.460937-.460938-.980469-.882812-1.523437-1.25-.539063-.359375-1.128907-.671875-1.726563-.921875-.601563-.25-1.230469-.4375-1.871094-.570313-1.289062-.257812-2.621093-.257812-3.910156 0-.640625.132813-1.269531.320313-1.871094.570313-.597656.25-1.179687.5625-1.730469.921875-.539062.367188-1.046874.789062-1.519531 1.25-.460937.457031-.871093.96875-1.238281 1.519531-.359375.539063-.671875 1.121094-.921875 1.71875-.25.609375-.4375 1.242188-.570313 1.871094-.128906.648437-.1875 1.308594-.1875 1.960937 0 2.628907 1.058594 5.207032 2.917969 7.070313.472657.457031.980469.878906 1.523438 1.238281.550781.359375 1.128906.667969 1.726562.917969.601563.25 1.230469.441406 1.871094.570313.648437.132812 1.300781.203124 1.960937.203124.648438 0 1.308594-.070312 1.949219-.203124.640625-.128907 1.269531-.320313 1.871094-.570313.597656-.25 1.1875-.558594 1.726563-.917969.542968-.359375 1.0625-.78125 1.523437-1.238281 1.859375-1.863281 2.929687-4.441406 2.929687-7.070313 0-.652343-.070312-1.3125-.199218-1.960937-.132813-.628906-.324219-1.261719-.574219-1.871094zm0 0" fill="#231f20" data-original="#231F20"/></g> </svg>
