<?xml version="1.0" standalone="no"?>
<!DOCTYPE svg PUBLIC "-//W3C//DTD SVG 20010904//EN"
 "http://www.w3.org/TR/2001/REC-SVG-20010904/DTD/svg10.dtd">
<svg version="1.0" xmlns="http://www.w3.org/2000/svg"
 width="1000.000000pt" height="200.000000pt" viewBox="0 0 1000.000000 200.000000"
 preserveAspectRatio="xMidYMid meet">

<g transform="translate(0.000000,200.000000) scale(0.100000,-0.100000)"
fill="#000000" stroke="none">
<path d="M856 1955 c-249 -44 -472 -180 -623 -379 -60 -79 -137 -240 -164
-341 -26 -101 -36 -276 -20 -383 31 -214 128 -402 286 -558 136 -134 302 -223
484 -259 65 -14 119 -16 240 -13 142 4 164 7 248 36 173 59 290 131 405 250
124 128 199 257 249 427 21 71 24 101 24 255 0 153 -3 185 -23 255 -85 294
-302 539 -576 651 -153 63 -372 87 -530 59z m-176 -441 c78 -37 175 -70 324
-110 129 -34 176 -55 211 -94 10 -11 22 -20 27 -20 4 0 41 31 80 69 40 37 83
73 95 80 30 15 87 14 129 -4 30 -13 115 -68 148 -97 5 -4 -8 -15 -30 -24 -78
-32 -84 -44 -84 -168 0 -130 -10 -171 -53 -227 -44 -57 -186 -140 -285 -167
-42 -12 -98 -27 -124 -34 l-47 -13 24 -29 24 -29 101 23 c107 24 119 22 120
-22 0 -37 -12 -48 -49 -46 l-36 1 33 4 c35 5 48 22 38 49 -4 11 -10 13 -19 6
-6 -5 -43 -15 -82 -22 -84 -15 -88 -17 -76 -38 7 -12 3 -19 -17 -29 -16 -9
-28 -10 -32 -3 -3 5 -28 37 -55 70 -49 59 -51 60 -90 54 -105 -15 -162 -46
-319 -173 -95 -76 -106 -82 -124 -65 -18 18 -17 19 108 144 52 52 137 150 188
217 l92 121 -113 37 c-175 58 -268 106 -341 178 -35 34 -71 77 -80 95 l-17 32
28 0 c16 0 55 -7 88 -15 86 -22 277 -45 365 -45 l75 0 -79 51 c-105 67 -174
143 -212 234 -18 43 -10 45 66 9z m390 -921 c20 -21 21 -25 6 -20 -17 7 -17 5
2 -28 14 -22 17 -37 11 -41 -6 -3 -9 -15 -6 -25 3 -10 -2 -24 -9 -30 -8 -7
-13 -18 -10 -26 3 -7 1 -13 -4 -13 -13 0 -13 27 0 35 6 3 10 16 10 29 0 12 5
27 12 34 9 9 7 13 -5 18 -9 3 -17 13 -17 21 0 10 -7 13 -22 8 -20 -5 -21 -4
-5 5 20 13 23 30 3 30 -7 0 -48 -11 -91 -25 -73 -23 -79 -23 -91 -7 -27 35
-22 38 91 51 44 4 85 9 90 10 6 0 21 -11 35 -26z m168 0 c-10 -2 -28 -2 -40 0
-13 2 -5 4 17 4 22 1 32 -1 23 -4z m-411 -49 c-3 -3 -12 -4 -19 -1 -8 3 -5 6
6 6 11 1 17 -2 13 -5z m168 -4 c-11 -5 -27 -9 -35 -9 -9 0 -8 4 5 9 11 5 27 9
35 9 9 0 8 -4 -5 -9z m-120 -40 c-22 -10 -44 -18 -50 -18 -5 0 8 8 30 19 22
10 45 18 50 18 6 0 -8 -9 -30 -19z m185 -15 c0 -8 -4 -15 -10 -15 -5 0 -7 7
-4 15 4 8 8 15 10 15 2 0 4 -7 4 -15z"/>
<path d="M1526 1371 c-4 -7 -5 -15 -2 -18 9 -9 19 4 14 18 -4 11 -6 11 -12 0z"/>
<path d="M1030 701 c0 -9 66 -71 76 -71 3 0 -10 18 -27 40 -31 39 -49 50 -49
31z"/>
<path d="M2451 1415 c-244 -68 -405 -320 -363 -568 50 -293 331 -480 620 -412
79 19 151 55 204 103 43 39 98 116 98 139 0 13 -55 40 -102 50 -23 4 -29 0
-46 -33 -27 -52 -79 -104 -122 -122 -44 -18 -145 -18 -190 1 -40 17 -105 79
-127 121 -43 82 -61 217 -43 316 29 165 122 272 249 287 96 11 203 -53 237
-143 9 -24 22 -44 29 -44 7 0 38 11 69 25 54 24 55 26 45 52 -31 83 -131 172
-239 215 -73 28 -241 35 -319 13z"/>
<path d="M3465 1411 c-180 -52 -304 -173 -350 -338 -13 -47 -16 -88 -13 -170
5 -128 27 -193 93 -280 76 -101 173 -159 310 -188 312 -64 597 111 645 396 47
280 -107 521 -372 584 -85 20 -237 18 -313 -4z m283 -148 c87 -52 129 -183
120 -372 -11 -223 -90 -333 -239 -333 -67 0 -137 29 -169 69 -10 13 -29 50
-42 81 -19 50 -22 75 -23 212 0 126 4 166 19 213 23 70 77 133 131 153 60 22
146 12 203 -23z"/>
<path d="M7151 1415 c-116 -33 -232 -128 -286 -235 -50 -99 -56 -146 -53 -452
l3 -283 135 0 135 0 3 112 3 113 139 0 140 0 0 65 0 65 -140 0 -140 0 0 129
c0 144 11 215 41 278 31 65 70 88 149 88 51 0 72 -5 97 -23 72 -51 99 -174 90
-412 -8 -183 -31 -309 -82 -441 -20 -51 -37 -100 -38 -108 -1 -7 20 -27 46
-44 l48 -30 41 39 c100 97 210 308 242 466 20 98 20 237 0 313 -37 146 -134
269 -260 331 -65 33 -84 37 -166 40 -63 3 -111 -1 -147 -11z"/>
<path d="M4356 1336 c-139 -293 -125 -582 38 -763 248 -275 686 -161 781 204
12 44 15 122 15 345 l0 289 -137 -3 -138 -3 -6 -335 c-6 -355 -8 -373 -59
-455 -47 -76 -178 -89 -240 -23 -84 88 -103 377 -43 656 37 174 45 157 -74
160 l-102 3 -35 -75z"/>
<path d="M5375 1398 c-3 -7 -4 -224 -3 -483 l3 -470 140 0 140 0 3 178 2 178
28 -3 c24 -3 30 -11 48 -68 27 -85 61 -151 118 -227 l46 -63 170 0 c96 0 170
4 170 9 0 5 -29 32 -64 60 -79 63 -173 163 -225 240 l-40 59 58 21 c106 38
197 130 222 225 25 91 -6 200 -73 262 -93 85 -137 94 -470 94 -206 0 -270 -3
-273 -12z m470 -126 c43 -25 65 -75 65 -147 0 -124 -44 -196 -131 -214 -27 -6
-66 -11 -84 -11 l-35 0 0 201 0 202 78 -7 c42 -4 90 -15 107 -24z"/>
<path d="M6345 1398 c-3 -7 -4 -224 -3 -483 l3 -470 140 0 140 0 0 480 0 480
-138 3 c-104 2 -139 -1 -142 -10z"/>
<path d="M7895 1398 c-3 -7 -4 -224 -3 -483 l3 -470 134 -3 c101 -2 136 1 143
10 4 7 8 89 8 181 l0 168 27 -3 c23 -3 28 -11 43 -63 21 -77 79 -187 131 -248
l41 -47 169 0 c95 0 169 4 169 9 0 5 -21 25 -47 44 -69 51 -188 174 -239 247
-43 62 -47 80 -17 80 30 0 119 52 165 97 92 91 117 218 64 327 -31 64 -69 99
-146 135 -55 26 -57 26 -348 29 -235 3 -293 1 -297 -10z m459 -126 c55 -32 71
-65 71 -150 -1 -144 -52 -207 -179 -219 l-66 -6 0 203 0 203 73 -7 c39 -4 85
-15 101 -24z"/>
</g>
</svg>
