<?xml version="1.0"?>
<svg xmlns="http://www.w3.org/2000/svg" height="512px" viewBox="0 0 480 480.02224" width="512px" class=""><g><path d="m472.011719 56.019531v368l-120 48v-368zm0 0" fill="#005e9c" data-original="#005E9C" class=""/><path d="m352.011719 104.019531v368l-112-48v-360l2.878906-6.71875zm0 0" fill="#168fba" data-original="#168FBA" class=""/><path d="m240.011719 64.019531v360l-112 48v-368l112-48 2.878906 1.28125zm0 0" fill="#005e9c" data-original="#005E9C" class=""/><path d="m128.011719 440.019531v32l-120-48v-368l120 48zm0 0" fill="#168fba" data-original="#168FBA" class=""/><path d="m136.011719 296.019531c.003906-25.085937-19.316407-45.945312-44.328125-47.863281-25.015625-1.921875-47.289063 15.75-51.113282 40.546875-3.820312 24.792969 12.097657 48.351563 36.527344 54.054687l10.914063 31.808594 10.910156-31.808594c21.707031-5.09375 37.058594-24.441406 37.089844-46.738281zm0 0" fill="#ad2943" data-original="#AD2943"/><path d="m432.011719 56.019531c.003906-25.085937-19.316407-45.945312-44.328125-47.863281-25.015625-1.921875-47.289063 15.75-51.113282 40.546875-3.820312 24.792969 12.097657 48.351563 36.527344 54.054687l10.914063 31.808594 10.910156-31.808594c21.707031-5.09375 37.058594-24.441406 37.089844-46.738281zm0 0" fill="#ad2943" data-original="#AD2943"/><path d="m172.011719 424.019531h-84v-16h84c6.625 0 12-5.371093 12-12v-56c0-15.460937 12.535156-28 28-28h168c6.625 0 12-5.371093 12-12v-16c0-6.625-5.375-12-12-12h-80c-15.464844 0-28-12.535156-28-28 0-6.625-5.375-12-12-12h-96c-15.464844 0-28-12.535156-28-28v-8c0-15.460937 12.535156-28 28-28h220v16h-220c-6.628907 0-12 5.375-12 12v8c0 6.628907 5.371093 12 12 12h96c15.464843 0 28 12.539063 28 28 0 6.628907 5.371093 12 12 12h80c15.464843 0 28 12.539063 28 28v16c0 15.464844-12.535157 28-28 28h-168c-6.628907 0-12 5.375-12 12v56c0 15.464844-12.535157 28-28 28zm0 0" fill="#f29a2b" data-original="#F29A2B"/><path d="m400.011719 176.019531c0 8.839844-7.164063 16-16 16-8.835938 0-16-7.160156-16-16 0-8.835937 7.164062-16 16-16 8.835937 0 16 7.164063 16 16zm0 0" fill="#de722a" data-original="#DE722A"/><path d="m104.011719 416.019531c0 8.839844-7.164063 16-16 16-8.835938 0-16-7.160156-16-16 0-8.835937 7.164062-16 16-16 8.835937 0 16 7.164063 16 16zm0 0" fill="#de722a" data-original="#DE722A"/><path d="m104.011719 296.019531c0 8.839844-7.164063 16-16 16-8.835938 0-16-7.160156-16-16 0-8.835937 7.164062-16 16-16 8.835937 0 16 7.164063 16 16zm0 0" fill="#ee3446" data-original="#EE3446"/><path d="m400.011719 56.019531c0 8.839844-7.164063 16-16 16-8.835938 0-16-7.160156-16-16 0-8.835937 7.164062-16 16-16 8.835937 0 16 7.164063 16 16zm0 0" fill="#ee3446" data-original="#EE3446"/><path d="m32.011719 296.019531c-.078125 24.363281 15.667969 45.953125 38.886719 53.320313l9.542968 27.824218c1.109375 3.234376 4.152344 5.40625 7.570313 5.40625s6.460937-2.171874 7.566406-5.40625l9.546875-27.824218c27.3125-8.765625 43.585938-36.757813 37.691406-64.832032-5.898437-28.074218-32.058594-47.152343-60.59375-44.1875-28.53125 2.964844-50.210937 27.011719-50.210937 55.699219zm96 0c.058593 18.609375-12.777344 34.777344-30.914063 38.945313-2.683594.625-4.859375 2.589844-5.75 5.199218l-3.335937 9.730469-3.335938-9.730469c-.894531-2.609374-3.066406-4.574218-5.753906-5.199218-20.359375-4.75-33.628906-24.378906-30.445313-45.046875 3.183594-20.664063 21.746094-35.390625 42.59375-33.789063 20.847657 1.597656 36.945313 18.984375 36.941407 39.890625zm0 0" data-original="#000000" class=""/><path d="m10.980469 48.589844c-2.464844-.984375-5.257813-.683594-7.457031.804687-2.199219 1.488281-3.5117192 3.972657-3.5117192 6.625v368c0 3.273438 1.9921872 6.21875 5.0312502 7.433594l120 48c1.96875.785156 4.171875.757813 6.121093-.078125l108.847657-46.648438 108.847656 46.648438c1.949219.835938 4.148437.863281 6.121094.078125l120-48c3.039062-1.214844 5.03125-4.160156 5.03125-7.433594v-368c0-2.652343-1.316407-5.136719-3.511719-6.625-2.199219-1.488281-4.992188-1.789062-7.457031-.804687l-29.375 11.75c.109375-1.4375.34375-2.847656.34375-4.320313.007812-24.421875-15.808594-46.03125-39.089844-53.40625s-48.660156 1.191407-62.710937 21.164063c-14.050782 19.972656-13.542969 46.75 1.265624 66.171875l-96.3125-41.28125c-2.015624-.855469-4.289062-.855469-6.304687 0l-108.960937 46.695312zm373.03125-32.570313c13.160156-.027343 25.492187 6.433594 32.957031 17.277344 7.464844 10.839844 9.105469 24.660156 4.386719 36.949219 0 .070312-.105469.128906-.136719.207031-1.75 4.476563-4.28125 8.609375-7.480469 12.199219l-.527343.5625c-1.882813 2.027344-3.972657 3.855468-6.230469 5.453125-.234375.160156-.433594.351562-.671875.511719-.800782.519531-1.601563.953124-2.402344 1.425781-1.007812.574219-2.03125 1.136719-3.101562 1.601562-.664063.308594-1.328126.613281-2.015626.886719-1.851562.753906-3.757812 1.371094-5.699218 1.847656-2.683594.625-4.859375 2.589844-5.75 5.199219l-3.328125 9.753906-3.335938-9.730469c-.894531-2.609374-3.066406-4.574218-5.753906-5.199218-1.558594-.402344-3.089844-.898438-4.589844-1.488282-1.039062-.40625-2.089843-.800781-3.242187-1.367187-.066406-.019531-.136719-.035156-.207032-.046875-16.902343-7.992188-26-26.640625-21.890624-44.882812 4.109374-18.238282 20.324218-31.1875 39.019531-31.160157zm-248 93.273438 96-41.144531v43.871093h16v-43.871093l100.847656 43.199218c1.953125.835938 4.15625.863282 6.128906.082032l8.542969-3.410157c.65625.273438 1.289062.488281 1.929688.722657.496093.175781.941406.429687 1.4375.589843l9.542968 27.824219c1.109375 3.234375 4.152344 5.40625 7.570313 5.40625s6.460937-2.171875 7.566406-5.40625l9.546875-27.824219.269531-.109375c2.289063-.765625 4.523438-1.679687 6.6875-2.738281.882813-.414063 1.738281-.847656 2.585938-1.304687 1.445312-.796876 2.839843-1.65625 4.199219-2.558594 1.628906-1.085938 3.203124-2.253906 4.710937-3.503906.664063-.550782 1.335937-1.097657 1.976563-1.679688 1.214843-1.097656 2.402343-2.230469 3.496093-3.433594l.207031-.238281c2.449219-2.683594 4.628907-5.601563 6.503907-8.710937.105469-.175782.226562-.34375.328125-.53125.96875-1.613282 1.847656-3.277344 2.640625-4.980469l29.28125-11.699219v350.761719l-104 41.601562v-36.1875h-16v35.875l-96-41.144531v-42.730469h-16v42.730469l-96 41.144531v-19.875h-16v20.1875l-104-41.601562v-350.769531l104 41.601562v42.582031h16zm0 0" data-original="#000000" class=""/><path d="m164.011719 232.019531h96c6.625 0 12 5.375 12 12 0 15.464844 12.535156 28 28 28h80c6.625 0 12 5.375 12 12v16c0 6.628907-5.375 12-12 12h-168c-15.464844 0-28 12.539063-28 28v56c0 6.628907-5.375 12-12 12h-70.214844c-3.621094-6.269531-11.003906-9.328125-18-7.453125s-11.859375 8.214844-11.859375 15.453125c0 7.242188 4.863281 13.582031 11.859375 15.457031s14.378906-1.183593 18-7.457031h70.214844c15.464843 0 28-12.535156 28-28v-56c0-6.625 5.371093-12 12-12h168c15.464843 0 28-12.535156 28-28v-16c0-15.460937-12.535157-28-28-28h-80c-6.628907 0-12-5.371093-12-12 0-15.460937-12.535157-28-28-28h-96c-6.628907 0-12-5.371093-12-12v-8c0-6.625 5.371093-12 12-12h206.214843c3.621094 6.273438 11.003907 9.332031 18 7.457031 6.992188-1.875 11.855469-8.214843 11.855469-15.457031 0-7.238281-4.863281-13.578125-11.855469-15.453125-6.996093-1.875-14.378906 1.183594-18 7.453125h-206.214843c-15.464844 0-28 12.539063-28 28v8c0 15.464844 12.535156 28 28 28zm0 0" data-original="#000000" class=""/><path d="m64.011719 296.019531c0 13.257813 10.746093 24 24 24 13.253906 0 24-10.742187 24-24 0-13.253906-10.746094-24-24-24-13.253907 0-24 10.746094-24 24zm32 0c0 4.417969-3.582031 8-8 8s-8-3.582031-8-8 3.582031-8 8-8 8 3.582031 8 8zm0 0" data-original="#000000" class=""/><path d="m384.011719 80.019531c13.253906 0 24-10.742187 24-24 0-13.253906-10.746094-24-24-24-13.253907 0-24 10.746094-24 24 0 13.257813 10.746093 24 24 24zm0-32c4.417969 0 8 3.582031 8 8s-3.582031 8-8 8-8-3.582031-8-8 3.582031-8 8-8zm0 0" data-original="#000000" class=""/></g> </svg>
