<?xml version="1.0"?>
<svg xmlns="http://www.w3.org/2000/svg" id="Layer_1" data-name="Layer 1" viewBox="0 0 512 512" width="512px" height="512px"><g><link xmlns="" type="text/css" id="dark-mode" rel="stylesheet"/><style xmlns="" type="text/css" id="dark-mode-custom-style"/><title>parcel track location</title><path d="M405.919,267.66V145.172a6,6,0,0,0-3-5.2L210.96,29.147a6,6,0,0,0-6,0L13,139.976a6,6,0,0,0-3,5.2V366.828a6,6,0,0,0,3,5.2L204.96,482.853a6.005,6.005,0,0,0,6,0L313.622,423.58a101.965,101.965,0,1,0,92.3-155.92Zm-197.959-18.6L122.1,199.484,302.044,95.592l85.862,49.572Zm0-207.785,82.083,47.391L110.1,192.555,28.013,145.164ZM22,155.55l179.96,103.9V467.263L22,363.364ZM213.96,467.263V259.449l179.959-103.9V267.673a101.951,101.951,0,0,0-86.077,145.388Zm186.061-7.818A89.98,89.98,0,1,1,490,369.465,90.082,90.082,0,0,1,400.021,459.445Z" data-original="#000000" fill="#000000"/><path d="M441.485,309.017c-22.864-21.779-60.066-21.781-82.93,0A54.655,54.655,0,0,0,351.009,380l44.077,63.71a6,6,0,0,0,9.869,0L449.032,380A54.656,54.656,0,0,0,441.485,309.017Zm-2.322,64.156-39.142,56.578-39.143-56.578a42.711,42.711,0,0,1,5.954-55.467,48.658,48.658,0,0,1,66.376,0A42.713,42.713,0,0,1,439.163,373.173Z" data-original="#000000" fill="#000000"/><path d="M400.021,316.271a32.472,32.472,0,1,0,32.47,32.472A32.508,32.508,0,0,0,400.021,316.271Zm0,52.943a20.472,20.472,0,1,1,20.47-20.471A20.495,20.495,0,0,1,400.021,369.214Z" data-original="#000000" fill="#000000"/></g> </svg>
