<?xml version="1.0"?>
<svg xmlns="http://www.w3.org/2000/svg" height="512px" viewBox="0 -3 472 471" width="512px"><g><path d="m344 456.539062h-288v-16h288c39.746094-.042968 71.957031-32.253906 72-72v-8c-.042969-39.746093-32.253906-71.957031-72-72h-216c-48.601562 0-88-39.398437-88-88 0-48.601562 39.398438-88 88-88h280v16h-280c-39.765625 0-72 32.234376-72 72 0 39.765626 32.234375 72 72 72h216c48.578125.058594 87.941406 39.421876 88 88v8c-.058594 48.578126-39.421875 87.941407-88 88zm0 0" fill="#494342" data-original="#494342"/><path d="m208 384.539062h16v40h-16zm0 0" fill="#7d4739" data-original="#7D4739"/><path d="m256 56.539062h16v40h-16zm0 0" fill="#7d4739" data-original="#7D4739"/><path d="m82.648438 388.539062c9.707031-16.808593 5.941406-38.164062-8.929688-50.644531-14.871094-12.476562-36.550781-12.476562-51.421875 0-14.871094 12.480469-18.636719 33.835938-8.929687 50.644531v.066407c.933593 1.601562 1.976562 3.140625 3.121093 4.597656l25.273438 30.007813c1.789062 1.792968 2.542969 3.59375 6.238281 3.59375 2.53125-.140626 4.847656-1.472657 6.238281-3.59375l25.296875-30.183594c1.074219-1.382813 2.058594-2.835938 2.9375-4.351563zm0 0" fill="#ee3446" data-original="#EE3446"/><path d="m96 448.539062c0-8.835937-21.492188-16-48-16s-48 7.164063-48 16c0 8.835938 21.492188 16 48 16s48-7.164062 48-16zm0 0" fill="#adabac" data-original="#ADABAC"/><path d="m64 368.539062c0 8.835938-7.164062 16-16 16s-16-7.164062-16-16c0-8.835937 7.164062-16 16-16s16 7.164063 16 16zm0 0" fill="#ad2943" data-original="#AD2943"/><path d="m458.648438 60.539062c9.707031-16.808593 5.941406-38.164062-8.929688-50.644531-14.871094-12.476562-36.550781-12.476562-51.421875 0-14.871094 12.480469-18.636719 33.835938-8.929687 50.644531l.039062.066407c.933594 1.601562 1.976562 3.140625 3.121094 4.597656l25.273437 30.007813c1.792969 1.792968 2.542969 3.59375 6.238281 3.59375 2.53125-.140626 4.847657-1.472657 6.242188-3.59375l25.292969-30.183594c1.078125-1.382813 2.058593-2.835938 2.9375-4.351563zm0 0" fill="#ee3446" data-original="#EE3446"/><path d="m472 120.539062c0-8.835937-21.492188-16-48-16s-48 7.164063-48 16c0 8.835938 21.492188 16 48 16s48-7.164062 48-16zm0 0" fill="#adabac" data-original="#ADABAC"/><path d="m440 40.539062c0 8.835938-7.164062 16-16 16s-16-7.164062-16-16c0-8.835937 7.164062-16 16-16s16 7.164063 16 16zm0 0" fill="#ad2943" data-original="#AD2943"/><path d="m168 152.539062h16v104h-16zm0 0" fill="#7d4739" data-original="#7D4739"/><path d="m202.34375 190.195312-26.34375-26.34375-26.34375 26.34375-11.3125-11.3125 32-32c3.125-3.121093 8.1875-3.121093 11.3125 0l32 32zm0 0" fill="#2d8e43" data-original="#2D8E43"/><path d="m202.34375 238.195312-26.34375-26.34375-26.34375 26.34375-11.3125-11.3125 32-32c3.125-3.121093 8.1875-3.121093 11.3125 0l32 32zm0 0" fill="#2d8e43" data-original="#2D8E43"/><path d="m296 312.539062h16v112h-16zm0 0" fill="#6fb944" data-original="#6FB944"/><path d="m328 376.539062h-48c-8.835938 0-16-7.164062-16-16v-24h16v24h48v-16h16v16c0 8.835938-7.164062 16-16 16zm0 0" fill="#6fb944" data-original="#6FB944"/><path d="m92 .539062c-17.785156.027344-32.871094 13.074219-35.464844 30.671876-7.800781-7.476563-19.640625-8.816407-28.917968-3.273438-9.277344 5.546875-13.703126 16.609375-10.8125 27.023438 2.890624 10.414062 12.386718 17.609374 23.195312 17.578124h52c19.882812 0 36-16.117187 36-36 0-19.882812-16.117188-36-36-36zm0 0" fill="#168de2" data-original="#168DE2"/><g fill="#2d8e43"><path d="m240 344.539062c.058594-10.734374-7.019531-20.203124-17.332031-23.1875-10.3125-2.984374-21.351563 1.246094-27.03125 10.355469-5.683594 9.109375-4.621094 20.882813 2.59375 28.832031-8.707031 9.589844-8.234375 24.363282 1.074219 33.375 9.304687 9.011719 24.085937 9.011719 33.390624 0 9.308594-9.011718 9.78125-23.785156 1.074219-33.375 3.992188-4.371093 6.214844-10.078124 6.230469-16zm0 0" data-original="#000000"/><path d="m275.519531 27.605469c6.078125-6.308594 5.957031-16.332031-.277343-22.488281-6.230469-6.15625-16.253907-6.15625-22.484376 0-6.234374 6.15625-6.355468 16.179687-.277343 22.488281-9.621094 5.261719-14.449219 16.375-11.734375 26.996093 2.71875 10.625 12.289062 18.054688 23.253906 18.054688s20.535156-7.429688 23.253906-18.054688c2.714844-10.621093-2.113281-21.734374-11.734375-26.996093zm0 0" data-original="#000000"/></g></g> </svg>
