<?xml version="1.0"?>
<svg xmlns="http://www.w3.org/2000/svg" xmlns:xlink="http://www.w3.org/1999/xlink" version="1.1" id="Capa_1" x="0px" y="0px" width="512px" height="512px" viewBox="0 0 438.306 438.305" style="enable-background:new 0 0 438.306 438.305;" xml:space="preserve"><g><link xmlns="" type="text/css" id="dark-mode" rel="stylesheet"/><style xmlns="" type="text/css" id="dark-mode-custom-style"/><g>
	<g>
		<path d="M436.669,20.458c-1.086-0.699-2.464-0.758-3.606-0.156c-17.421,9.208-35.777,13.878-54.563,13.878    c-31.858,0-54.275-13.619-54.494-13.754c-1.152-0.715-2.615-0.715-3.769-0.002c-0.223,0.137-22.64,13.753-54.499,13.756    c-0.002,0-0.004,0-0.006,0c-6.109,0-12.172-0.503-18.175-1.487c0.653,0.614,1.319,1.214,1.949,1.851    c16.953,17.125,25.387,42.148,25.063,74.379c-0.332,30.482-5.953,57.542-16.41,79.601c17.278,27.229,38.147,48.777,62.033,64.045    c0.588,0.377,1.258,0.564,1.927,0.564s1.338-0.188,1.926-0.564c23.93-15.295,44.83-36.894,62.126-64.19    c13.776-21.744,25.308-47.136,34.272-75.471c15.241-48.16,17.833-88.821,17.855-89.228    C438.38,22.387,437.755,21.156,436.669,20.458z M399.993,106.435c-8.408,26.572-19.156,50.277-31.94,70.46    c-8.438,13.314-17.853,25.182-28.058,35.375V50.092c12.61,3.677,25.541,5.538,38.504,5.538c11.728,0,23.394-1.54,34.757-4.581    C410.872,65.252,406.774,85.001,399.993,106.435z" data-original="#000000" fill="#000000"/>
		<path d="M275.513,276.553l-48.898-22.513l-23.491-19.812l-37.464,37.266l16.73,111.854c0.059,0.39-0.039,0.788-0.271,1.105    l-17.725,24.259c-0.283,0.388-0.732,0.615-1.211,0.615s-0.93-0.229-1.211-0.615l-17.725-24.259    c-0.232-0.317-0.33-0.716-0.271-1.105l16.73-111.857l-37.465-37.263L99.75,254.041l-48.897,22.513    c-7.236,2.969-15.012,8.225-17.961,15.323c0,0-53.15,126.541-24.322,126.541h309.227c28.828,0-24.321-126.541-24.321-126.541    C290.325,284.346,282.748,279.522,275.513,276.553z" data-original="#000000" fill="#000000"/>
		<path d="M163.181,233.516c50.01,0,87.329-46.595,88.179-124.735c0.544-54.221-25.279-86.671-88.179-86.671    s-88.728,32.45-88.178,86.671C75.853,186.921,113.171,233.516,163.181,233.516z" data-original="#000000" fill="#000000"/>
	</g>
</g></g> </svg>
