<?xml version="1.0"?>
<svg xmlns="http://www.w3.org/2000/svg" height="512px" viewBox="-32 0 512 512" width="512px"><g><link xmlns="" type="text/css" id="dark-mode" rel="stylesheet"/><style xmlns="" type="text/css" id="dark-mode-custom-style"/><path d="m417.199219 421.617188-29.714844-220.539063c-5.65625-41.984375-43.433594-73.644531-87.875-73.644531h-8.378906v-28.101563h79.144531c24.878906 0 45.117188-20.238281 45.117188-45.117187v-54.214844h-382.527344v54.214844c0 24.878906 20.238281 45.121094 45.117187 45.121094h79.148438v28.097656h-8.382813c-44.441406 0-82.21875 31.664062-87.875 73.648437l-29.714844 220.535157h-31.257812v90.382812h448.460938v-90.382812zm-339.117188-352.285157c-8.335937 0-15.117187-6.78125-15.117187-15.117187v-24.214844h322.527344v24.214844c0 8.335937-6.78125 15.121094-15.117188 15.121094h-292.292969zm109.148438 30h74v28.101563h-74zm-96.527344 105.753907c3.660156-27.167969 28.65625-47.652344 58.144531-47.652344h150.761719c29.488281 0 54.484375 20.484375 58.148437 47.652344l29.171876 216.53125h-325.402344zm327.753906 276.914062h-388.457031v-30.382812h388.460938v30.382812zm0 0" data-original="#000000" fill="#000000"/><path d="m224.230469 191.527344c-54.039063 0-98 43.960937-98 98 0 54.035156 43.960937 98 98 98 54.035156 0 98-43.964844 98-98 0-54.039063-43.964844-98-98-98zm0 166c-37.496094 0-68-30.507813-68-68 0-32.339844 22.699219-59.460938 53-66.3125v66.3125h30v-66.3125c30.296875 6.851562 53 33.972656 53 66.3125 0 37.492187-30.507813 68-68 68zm0 0" data-original="#000000" fill="#000000"/></g> </svg>
