<?xml version="1.0"?>
<svg xmlns="http://www.w3.org/2000/svg" xmlns:xlink="http://www.w3.org/1999/xlink" version="1.1" id="Layer_1" x="0px" y="0px" viewBox="0 0 496 496" style="enable-background:new 0 0 496 496;" xml:space="preserve" width="512px" height="512px" class=""><g><g>
	<polygon style="fill:#000001" points="420,496 12,496 12,386.4 72,328 420,328  " data-original="#08446D" class="" data-old_color="#000002"/>
	<rect x="172" style="fill:#000001" width="56" height="48" data-original="#08446D" class="" data-old_color="#000002"/>
</g><polyline style="fill:#000102" points="172,0 228,0 228,48 " data-original="#00233F" class="" data-old_color="#000203"/><rect x="124" y="16" style="fill:#000001" width="152" height="160" data-original="#08446D" class="" data-old_color="#000002"/><g>
	<polyline style="fill:#000102" points="124,16 276,16 276,176  " data-original="#00233F" class="" data-old_color="#000203"/>
	<rect x="92" y="72" style="fill:#000102" width="216" height="424" data-original="#00233F" class="" data-old_color="#000203"/>
</g><rect x="180" y="112" style="fill:#F7F8F8" width="40" height="40" data-original="#22EFAB" class="" data-old_color="#F3F6F5"/><polyline style="fill:#FBFCFC" points="220,112 220,152 180,152 " data-original="#0DD396" class="" data-old_color="#F7F8F8"/><rect x="180" y="168" style="fill:#F7F8F8" width="40" height="40" data-original="#22EFAB" class="" data-old_color="#F3F6F5"/><polyline style="fill:#FBFCFC" points="220,168 220,208 180,208 " data-original="#0DD396" class="" data-old_color="#F7F8F8"/><rect x="180" y="224" style="fill:#F7F8F8" width="40" height="40" data-original="#22EFAB" class="" data-old_color="#F3F6F5"/><polyline style="fill:#FBFCFC" points="220,224 220,264 180,264 " data-original="#0DD396" class="" data-old_color="#F7F8F8"/><rect x="180" y="280" style="fill:#F7F8F8" width="40" height="40" data-original="#22EFAB" class="" data-old_color="#F3F6F5"/><polyline style="fill:#FBFCFC" points="220,280 220,320 180,320 " data-original="#0DD396" class="" data-old_color="#F7F8F8"/><rect x="180" y="336" style="fill:#F7F8F8" width="40" height="40" data-original="#22EFAB" class="" data-old_color="#F3F6F5"/><polyline style="fill:#FBFCFC" points="220,336 220,376 180,376 " data-original="#0DD396" class="" data-old_color="#F7F8F8"/><rect x="124" y="168" style="fill:#F7F8F8" width="40" height="40" data-original="#22EFAB" class="" data-old_color="#F3F6F5"/><polyline style="fill:#FBFCFC" points="164,168 164,208 124,208 " data-original="#0DD396" class="" data-old_color="#F7F8F8"/><rect x="124" y="224" style="fill:#F7F8F8" width="40" height="40" data-original="#22EFAB" class="" data-old_color="#F3F6F5"/><polyline style="fill:#FBFCFC" points="164,224 164,264 124,264 " data-original="#0DD396" class="" data-old_color="#F7F8F8"/><rect x="124" y="280" style="fill:#F7F8F8" width="40" height="40" data-original="#22EFAB" class="" data-old_color="#F3F6F5"/><polyline style="fill:#FBFCFC" points="164,280 164,320 124,320 " data-original="#0DD396" class="" data-old_color="#F7F8F8"/><rect x="124" y="336" style="fill:#F7F8F8" width="40" height="40" data-original="#22EFAB" class="" data-old_color="#F3F6F5"/><polyline style="fill:#FBFCFC" points="164,336 164,376 124,376 " data-original="#0DD396" class="" data-old_color="#F7F8F8"/><rect x="124" y="112" style="fill:#F7F8F8" width="40" height="40" data-original="#22EFAB" class="" data-old_color="#F3F6F5"/><polyline style="fill:#FBFCFC" points="164,112 164,152 124,152 " data-original="#0DD396" class="" data-old_color="#F7F8F8"/><rect x="236" y="112" style="fill:#F7F8F8" width="40" height="40" data-original="#22EFAB" class="" data-old_color="#F3F6F5"/><polyline style="fill:#FBFCFC" points="276,112 276,152 236,152 " data-original="#0DD396" class="" data-old_color="#F7F8F8"/><rect x="236" y="168" style="fill:#F7F8F8" width="40" height="40" data-original="#22EFAB" class="" data-old_color="#F3F6F5"/><polyline style="fill:#FBFCFC" points="276,168 276,208 236,208 " data-original="#0DD396" class="" data-old_color="#F7F8F8"/><rect x="236" y="224" style="fill:#F7F8F8" width="40" height="40" data-original="#22EFAB" class="" data-old_color="#F3F6F5"/><polyline style="fill:#FBFCFC" points="276,224 276,264 236,264 " data-original="#0DD396" class="" data-old_color="#F7F8F8"/><rect x="236" y="280" style="fill:#F7F8F8" width="40" height="40" data-original="#22EFAB" class="" data-old_color="#F3F6F5"/><polyline style="fill:#FBFCFC" points="276,280 276,320 236,320 " data-original="#0DD396" class="" data-old_color="#F7F8F8"/><rect x="236" y="336" style="fill:#F7F8F8" width="40" height="40" data-original="#22EFAB" class="" data-old_color="#F3F6F5"/><polyline style="fill:#FBFCFC" points="276,336 276,376 236,376 " data-original="#0DD396" class="" data-old_color="#F7F8F8"/><path style="fill:#E1DFDD" d="M228,488v-63.2c0-5.6-5.6-8.8-11.2-8.8h-34.4c-5.6,0-10.4,4-10.4,8.8V488H228z" data-original="#C6640C" class="active-path" data-old_color="#E1DAD3"/><g>
	<rect x="332" y="200" style="fill:#000001" width="152" height="296" data-original="#08446D" class="" data-old_color="#000002"/>
	<rect x="356" y="152" style="fill:#000001" width="104" height="112" data-original="#08446D" class="" data-old_color="#000002"/>
	<rect x="380" y="96" style="fill:#000001" width="56" height="104" data-original="#08446D" class="" data-old_color="#000002"/>
	<polygon style="fill:#000001" points="376,205.6 408,10.4 440,205.6 408,237.6  " data-original="#08446D" class="" data-old_color="#000002"/>
</g><g>
	<rect x="364" y="232" style="fill:#E4E4E4" width="8" height="232" data-original="#5A8CA8" class="" data-old_color="#E2E2E2"/>
	<rect x="404" y="232" style="fill:#E4E4E4" width="8" height="232" data-original="#5A8CA8" class="" data-old_color="#E2E2E2"/>
	<rect x="436" y="232" style="fill:#E4E4E4" width="8" height="232" data-original="#5A8CA8" class="" data-old_color="#E2E2E2"/>
</g></g> </svg>
