<?xml version="1.0"?>
<svg xmlns="http://www.w3.org/2000/svg" height="512px" viewBox="-7 0 512 512" width="512px" class=""><g><path d="m274.972656 26.886719v458.226562c0 14.855469-12.042968 26.886719-26.898437 26.886719h-221.1875c-14.855469 0-26.886719-12.03125-26.886719-26.886719v-458.226562c0-14.855469 12.03125-26.886719 26.886719-26.886719h221.1875c14.855469 0 26.898437 12.03125 26.898437 26.886719zm0 0" fill="#44bfd7" data-original="#44BFD7" class=""/><path d="m212.167969 0-6.875 39.894531c-.519531 3.019531-3.144531 5.226563-6.203125 5.226563h-122.285156c-3.019532 0-5.601563-2.136719-6.183594-5.09375l-7.820313-40.027344zm0 0" fill="#2cb3cd" data-original="#2CB3CD" class=""/><path d="m246.921875 84.726562v386.113282c0 7.375-5.984375 13.359375-13.359375 13.359375h-192.15625c-7.375 0-13.347656-5.984375-13.347656-13.359375v-386.113282c0-7.375 5.972656-13.363281 13.347656-13.363281h192.15625c7.375 0 13.359375 5.988281 13.359375 13.363281zm0 0" fill="#7cd2e3" data-original="#7CD2E3"/><path d="m246.921875 84.726562v386.113282c0 7.375-5.984375 13.359375-13.359375 13.359375h-161.035156c-7.375 0-13.351563-5.984375-13.351563-13.359375v-386.113282c0-7.375 5.976563-13.363281 13.351563-13.363281h161.035156c7.375 0 13.359375 5.988281 13.359375 13.363281zm0 0" fill="#c2eaf2" data-original="#C2EAF2"/><path d="m145.519531 14.429688h-51.640625c-4.296875 0-7.777344 3.480468-7.777344 7.777343s3.480469 7.78125 7.777344 7.78125h51.640625c4.296875 0 7.78125-3.484375 7.78125-7.78125s-3.484375-7.777343-7.78125-7.777343zm0 0" fill="#269ab1" data-original="#269AB1"/><path d="m186.40625 22.871094c0 4.296875-3.480469 7.78125-7.777344 7.78125s-7.78125-3.484375-7.78125-7.78125 3.484375-7.777344 7.78125-7.777344 7.777344 3.480469 7.777344 7.777344zm0 0" fill="#269ab1" data-original="#269AB1"/><path d="m225.253906 190.726562c0 30.878907-15.957031 58.03125-40.070312 73.664063-3.632813 2.355469-6.664063 5.523437-8.800782 9.289063l-27.027343 47.75-4.480469 7.90625c-.066406.125-.136719.246093-.21875.355468-3.367188 5.359375-11.320312 5.238282-14.488281-.355468l-31.507813-55.65625c-2.128906-3.765626-5.15625-6.929688-8.78125-9.277344-24.457031-15.851563-40.527344-43.546875-40.070312-74.964844.679687-47.234375 39.230468-85.769531 86.46875-86.425781 49.101562-.65625 88.976562 38.910156 88.976562 87.714843zm0 0" fill="#d63030" data-original="#D63030"/><path d="m225.253906 190.726562c0 30.878907-15.957031 58.03125-40.070312 73.664063-3.632813 2.355469-6.664063 5.523437-8.800782 9.289063l-27.027343 47.75-27.03125-47.75c-2.128907-3.765626-5.15625-6.929688-8.785157-9.277344-24.464843-15.851563-40.53125-43.546875-40.074218-74.964844.625-43.664062 33.621094-79.894531 75.921875-85.632812 42.839843 5.78125 75.867187 42.5 75.867187 86.921874zm0 0" fill="#f95353" data-original="#F95353"/><path d="m191.109375 191.039062c0 26.765626-19.453125 48.988282-44.984375 53.304688-2.953125.503906-5.992188.765625-9.085938.765625-29.859374 0-54.066406-24.207031-54.066406-54.070313 0-32.097656 27.863282-57.265624 60.019532-53.734374 1.058593.113281 2.105468.261718 3.140624.4375 25.527344 4.320312 44.976563 26.539062 44.976563 53.296874zm0 0" fill="#af2727" data-original="#AF2727" class=""/><path d="m191.109375 191.039062c0 26.765626-19.453125 48.988282-44.984375 53.304688-25.527344-4.324219-44.976562-26.542969-44.976562-53.304688 0-26.757812 19.449218-48.976562 44.984374-53.296874 25.527344 4.320312 44.976563 26.539062 44.976563 53.296874zm0 0" fill="#d63030" data-original="#D63030"/><path d="m187.703125 400.007812h-26.277344c-7.914062 0-14.347656-6.4375-14.347656-14.347656v-24.203125c0-4.296875-3.484375-7.777343-7.78125-7.777343s-7.78125 3.480468-7.78125 7.777343v24.203125c0 16.492188 13.417969 29.90625 29.910156 29.90625h26.277344c7.910156 0 14.347656 6.4375 14.347656 14.351563 0 7.910156-6.4375 14.347656-14.347656 14.347656h-122.398437c-4.296876 0-7.78125 3.480469-7.78125 7.777344s3.484374 7.78125 7.78125 7.78125h122.398437c16.488281 0 29.90625-13.417969 29.90625-29.90625 0-16.492188-13.417969-29.910157-29.90625-29.910157zm0 0" fill="#d63030" data-original="#D63030"/><path d="m456.214844 393.175781-106.738282 46.480469c-12.75 5.546875-27.71875-.339844-33.28125-13.082031l-9.195312-21.140625c-.886719-2.046875-2.644531-3.570313-4.789062-4.191406l-73.238282-20.890626c-14.949218-4.273437-24.144531-20.125-19.679687-35.019531 4.355469-14.523437 19.738281-22.972656 34.371093-18.804687l17.871094 4.828125c4.558594 1.242187 8.683594-1.933594 9.328125-6.03125.207031-1.324219.054688-2.730469-.558593-4.128907-.226563-.535156-.433594-1.078124-.617188-1.617187-.269531-.511719-.523438-1.019531-.75-1.550781l-52.089844-119.605469c-6.226562-14.324219.488282-31.144531 14.933594-37.207031.589844-.242188 1.191406-.472656 1.800781-.683594 13.964844-4.792969 29.25 2.390625 35.144531 15.925781l49.296876 113.230469 78.28125-34.085938c12.753906-5.550781 27.734374.339844 33.285156 13.078126l34.480468 79.207031 5.234376 12.019531c5.550781 12.742188-.339844 27.71875-13.089844 33.269531zm0 0" fill="#fdc478" data-original="#FDC478"/><path d="m464.070312 347.886719-71.101562 31.515625c-28.3125 12.546875-61.460938-.03125-74.339844-28.195313l-86.847656-189.992187c.589844-.242188 1.191406-.472656 1.800781-.683594 13.964844-4.792969 29.25 2.390625 35.144531 15.925781l49.296876 113.230469 78.28125-34.085938c12.753906-5.550781 27.734374.339844 33.285156 13.078126zm0 0" fill="#ffd993" data-original="#FFD993"/><path d="m486.414062 455.914062-111.902343 48.734376c-9.519531 4.144531-20.691407-.246094-24.847657-9.769532l-14.238281-32.714844c-3.519531-8.085937.175781-17.476562 8.257813-20.996093l16.996094-7.402344 100.269531-43.65625c8.070312-3.519531 17.476562.171875 20.992187 8.257813l9.566406 21.953124 4.679688 10.75c4.140625 9.519532-.253906 20.703126-9.773438 24.84375zm0 0" fill="#2cb3cd" data-original="#2CB3CD" class=""/><path d="m491.507812 420.320312-97.589843 42.5c-9.519531 4.140626-20.6875-.261718-24.84375-9.769531l-8.394531-19.285156 100.269531-43.65625c8.070312-3.519531 17.476562.171875 20.992187 8.257813zm0 0" fill="#44bfd7" data-original="#44BFD7" class=""/></g> </svg>
